<?xml version="1.0" encoding="UTF-8" standalone="no"?>
<!-- Uploaded to: SVG Repo, www.svgrepo.com, Generator: SVG Repo Mixer Tools -->

<svg
   width="800"
   height="800"
   viewBox="0 -54 1132 1132"
   class="icon"
   version="1.1"
   id="svg14"
   sodipodi:docname="Terre-perso-ODD-all.svg"
   xml:space="preserve"
   inkscape:version="1.3.2 (091e20e, 2023-11-25, custom)"
   inkscape:export-filename="Terre-perso-flirt.png"
   inkscape:export-xdpi="96"
   inkscape:export-ydpi="96"
   xmlns:inkscape="http://www.inkscape.org/namespaces/inkscape"
   xmlns:sodipodi="http://sodipodi.sourceforge.net/DTD/sodipodi-0.dtd"
   xmlns:xlink="http://www.w3.org/1999/xlink"
   xmlns="http://www.w3.org/2000/svg"
   xmlns:svg="http://www.w3.org/2000/svg"><defs
     id="defs14"><path
       id="SVGID_1_"
       d="m 712.459,99.15 c 0,0 10.174,-18.994 9.949,-43.187 -0.227,-24.194 -18.768,-29.168 -18.768,-29.168 0,0 -4.066,-1.809 -11.302,0 0,0 -18.541,4.974 -18.766,29.168 -0.227,24.193 9.949,43.187 9.949,43.187 0,0 11.975,8.365 28.938,0 z" /><path
       id="SVGID_00000108990672343663186690000014517496184309745078_"
       d="m 766.724,99.15 c 0,0 10.175,-18.994 9.949,-43.187 -0.226,-24.194 -18.767,-29.168 -18.767,-29.168 0,0 -4.067,-1.809 -11.302,0 0,0 -18.541,4.974 -18.767,29.168 -0.226,24.193 9.95,43.187 9.95,43.187 0,0 11.976,8.365 28.937,0 z" /></defs><sodipodi:namedview
     id="namedview14"
     pagecolor="#ffffff"
     bordercolor="#000000"
     borderopacity="0.25"
     inkscape:showpageshadow="2"
     inkscape:pageopacity="0.0"
     inkscape:pagecheckerboard="0"
     inkscape:deskcolor="#d1d1d1"
     inkscape:zoom="0.508125"
     inkscape:cx="199.754"
     inkscape:cy="555.96556"
     inkscape:window-width="1920"
     inkscape:window-height="1009"
     inkscape:window-x="-8"
     inkscape:window-y="-8"
     inkscape:window-maximized="1"
     inkscape:current-layer="svg14" /><path
     d="m 578.31242,493.19167 m -416.66762,0 a 416.66763,416.66763 0 1 0 833.33524,0 416.66763,416.66763 0 1 0 -833.33524,0 z"
     fill="#4766ac"
     id="path1"
     style="stroke-width:0.927555" /><path
     d="M 955.56823,670.18154 C 888.96935,811.76003 745.01075,909.85928 578.31242,909.85928 348.34515,909.85928 161.6448,723.15893 161.6448,493.19167 a 414.5892,414.5892 0 0 1 73.61634,-236.42602 414.67858,414.67858 0 0 0 -39.4006,176.98988 c 0,229.96727 186.70033,416.66761 416.6676,416.66761 142.19308,0 267.83701,-71.38149 343.04009,-180.2416 z"
     fill="#3f5a98"
     id="path2"
     style="stroke-width:0.927555" /><path
     d="m 955.56823,670.18154 c -75.20308,108.86011 -200.84701,180.2416 -343.04009,180.2416 -229.96727,0 -416.6676,-186.70034 -416.6676,-416.66761 a 414.67858,414.67858 0 0 1 39.4006,-176.98988 419.74055,419.74055 0 0 1 33.73524,-42.61881 c -1.1733,4.46973 -2.27955,8.9618 -3.30759,13.48739 a 415.41608,415.41608 0 0 0 -24.52761,141.08682 c 0,229.9561 186.70034,416.6676 416.66761,416.6676 120.92837,0 229.90022,-51.63647 306.04197,-134.03582 a 410.76757,410.76757 0 0 1 -8.30253,18.82871 z"
     fill="#32539d"
     id="path3"
     style="stroke-width:0.927555" /><path
     d="m 963.87076,651.35283 c -76.14175,82.39935 -185.1136,134.03582 -306.04197,134.03582 -229.96727,0 -416.66761,-186.7115 -416.66761,-416.6676 0,-49.51335 8.64892,-97.01535 24.52761,-141.08682 a 417.2375,417.2375 0 0 0 -10.34741,92.59032 c 0,229.96727 186.71152,416.66762 416.6676,416.66762 122.68274,0 233.05138,-53.13385 309.3272,-137.6228 a 414.13104,414.13104 0 0 1 -17.46542,52.08346 z"
     fill="#3a5aa3"
     id="path4"
     style="stroke-width:0.927555" /><path
     d="M 329.12534,806.27345 C 267.51021,769.0183 244.62522,750.37956 209.9625,687.08828 A 405.29216,405.29216 0 0 1 160.11391,491.76136 c 0,-84.00845 25.47743,-162.11686 69.12428,-227.00607 13.93437,-20.71717 48.04953,-42.58529 65.43676,-60.36361 -14.90653,20.29254 -46.38455,44.55196 -57.61474,67.49281 -46.52982,95.05984 -60.21835,210.49045 -30.2712,325.71992 a 492.47413,492.47413 0 0 0 29.27668,82.19821 c 29.33256,63.73826 43.12166,83.90788 93.05965,126.47083 z M 622.81968,450.65108 c 0,0 13.15216,-17.7895 43.68037,-1.475 0,0 11.10727,-0.92748 20.92948,-12.28058 0,0 22.04692,0.4358 42.56295,34.70741 0,0 26.31549,3.32994 -6.38054,-32.49489 -32.69602,-35.82482 -59.32441,-22.72854 -57.35773,-37.79152 1.96669,-15.06296 24.92989,-11.14078 32.41667,-30.00302 7.48679,-18.85105 -16.96259,-38.76367 -25.68973,-50.98837 -8.73831,-12.22468 0,-23.2202 27.93577,-19.72265 27.93578,3.48638 35.07616,-7.87788 25.65621,-21.57759 -9.41993,-13.71087 19.07455,-13.5656 35.84719,-4.20153 16.76146,9.3529 71.82845,11.34191 80.55559,-0.70399 8.73831,-12.0459 31.43333,-54.30713 47.15557,-14.14667 15.71108,40.16047 58.35224,24.50526 67.4146,139.07545 9.05119,114.57017 22.22569,126.94014 5.85535,165.96082 -16.37036,39.00951 -42.83112,-17.87889 -55.37988,-28.51684 -12.55992,-10.63794 -16.64971,1.91081 -16.10217,27.28766 0.54754,25.3657 -3.54225,78.29839 -17.18609,63.57065 -13.64383,-14.73892 -40.69683,-110.68153 -64.68807,-89.58443 -23.99124,21.0971 -35.17672,80.03039 -67.91744,68.29737 -32.74073,-11.73303 -11.8783,-39.60174 -39.37827,-49.20049 -27.49997,-9.6099 -55.63688,-10.19097 -58.73217,-31.85795 -3.08411,-21.67815 -23.15316,-6.20173 -19.09689,-33.86932 4.04511,-27.65641 -7.40857,-35.44491 -2.10077,-40.48452 z"
     fill="#6c8cc7"
     id="path5"
     style="stroke-width:0.927555" /><path
     d="m 916.71517,638.96052 c 0,0 -1.08391,11.2637 1.35208,10.15744 2.42483,-1.09506 2.60362,-1.37444 4.02276,-0.13415 1.41914,1.24034 1.43031,-3.35229 3.59813,-3.31877 2.16781,0.0224 -0.0781,2.77123 1.70967,2.86063 1.78789,0.0893 4.3468,-19.17512 7.92258,-29.12026 0,0 4.35799,-2.57008 0.67046,-10.28035 -3.68752,-7.71028 8.15724,-19.34273 2.3466,-21.35411 -5.81064,-2.01137 -3.12881,10.51502 -8.04549,14.98475 -4.91671,4.46973 -1.11745,9.38642 -1.45266,13.63266 -0.33524,4.24623 0.71515,5.45306 -5.84417,6.41405 -6.55933,0.96098 -8.79418,12.58228 -6.27996,16.15804 z M 399.98162,292.66871 c 0,0 -14.22489,-22.33745 13.52091,-35.43373 27.74582,-13.08512 7.82203,-21.91281 9.25233,-27.32119 1.41914,-5.39718 21.91282,-14.37016 34.86385,-7.822 12.93985,6.54812 16.21392,6.40286 28.31571,5.68771 12.09058,-0.70397 39.43412,20.79538 15.37583,22.91851 -24.05828,2.13429 -17.08551,20.05788 -29.89127,25.61152 -12.80575,5.54244 -20.88478,5.26309 -38.33906,5.75475 -17.44308,0.50286 -6.20173,8.6154 -17.01846,14.30313 -10.81674,5.69889 -11.24136,1.5644 -16.07984,-3.6987 z m 35.32199,99.42899 c 0,0 -28.86323,-14.59364 -33.35531,14.00141 -4.49208,28.59505 -4.14567,52.38516 12.35878,48.4071 16.50446,-3.98923 30.28239,-0.45814 46.6751,-24.47173 16.3927,-24.02477 21.28706,-29.71249 42.57411,-8.88358 21.28706,20.82892 30.07006,47.92661 49.52453,20.69482 19.45448,-27.24296 15.47642,-5.77712 34.37217,-23.08612 18.89576,-17.29782 36.90874,8.29134 66.78885,10.42563 29.88009,2.1343 6.8275,-2.70418 0.56989,-24.75109 0,0 10.95082,-6.76047 5.11783,-23.41018 -5.83299,-16.64971 10.59325,-5.82181 11.31957,-6.72692 0.72634,-0.9163 28.32687,-3.20704 15.6664,-20.12495 -12.66051,-16.92907 -20.76188,-3.4305 -31.52274,-31.93616 -10.76086,-28.51683 9.81104,-62.14032 -26.59486,-59.08975 0,0 -32.64015,32.24906 -63.83881,17.78951 -31.20984,-14.44839 -66.2413,-7.12921 -79.58343,14.57128 -13.34212,21.70052 -10.67146,17.07436 -12.98455,38.77486 -2.31308,21.70051 -20.73951,33.73523 -43.36749,30.03655 -22.6168,-3.69869 5.58715,26.39371 6.27996,27.77932 z"
     fill="#6c8cc7"
     id="path6"
     style="stroke-width:0.927555" /><path
     d="m 399.48995,484.43102 c 0,0 38.32788,-9.34172 54.12835,-28.014 15.80047,-18.67227 19.20864,-12.92868 24.84049,-34.14869 0,0 13.42035,-13.20802 37.64625,35.26612 0,0 26.68425,33.56762 46.47395,-9.78869 0,0 7.33034,-13.11863 25.11985,17.7895 0,0 10.01218,9.55404 18.23646,-10.44798 0,0 12.67168,6.44757 1.32975,34.68505 -11.34192,28.23749 8.51482,23.67836 20.68365,26.80717 12.15765,3.11762 -2.78241,23.27608 16.67206,40.98736 19.45447,17.72245 40.13811,5.82182 50.17265,9.1741 10.03452,3.36348 -60.4977,53.21207 -58.40811,86.22098 2.07841,32.99772 17.72244,43.24457 -25.0081,58.18461 -42.73058,14.94006 -12.85047,19.44331 -14.32547,27.74581 -1.48619,8.31369 -15.26411,27.77934 -37.12105,26.75129 -21.85695,-1.01685 -20.94067,16.05749 -33.80229,-9.44229 -12.86163,-25.49977 -39.76937,-41.23319 -15.23059,-76.8122 24.5388,-35.57898 -20.84008,-31.84677 -14.0908,-59.59257 6.76046,-27.74581 -24.9634,-3.77692 -43.1887,-15.16354 -18.22529,-11.37545 -66.63239,-6.54814 -63.86117,-66.29717 2.78241,-59.74904 -24.44937,-16.37037 9.73282,-53.90486 M 253.62054,248.09439 c 0,0 61.97271,-75.5942 77.53852,-77.27034 0,0 -10.83907,18.62757 -10.83907,21.67816 0,3.06176 -10.59326,7.07333 -2.31309,17.82302 0,0 3.86631,2.7377 4.84966,8.10138 0.98333,5.37483 2.80474,7.28564 15.64403,-4.01159 0,0 8.10136,0.7822 8.55952,9.7887 0.45814,9.01767 2.00019,6.55932 4.45853,9.01767 2.46953,2.45835 -8.91709,13.25273 -33.77993,14.71657 0,0 -15.82282,1.62027 -25.00809,16.19156 -9.17412,14.57131 -8.59305,15.95692 -7.64323,15.66639 0.94981,-0.29055 42.03775,-35.84719 54.27362,-25.56682 0,0 4.22388,2.46952 -9.25234,11.07373 0,0 -5.53127,4.95022 9.25234,12.67167 14.79478,7.72146 -9.3976,16.45976 -9.05119,21.58877 0.34639,5.12901 10.14627,11.71067 1.92197,14.79478 -8.21312,3.09528 -30.58409,-1.50853 -33.19887,0.81572 -2.61478,2.33544 -1.02803,2.6595 -3.49755,4.67086 -2.46952,2.00021 -6.90572,2.32426 -4.24624,10.47033 2.65949,8.1349 4.07862,20.28136 -28.04752,12.07942 0,0 8.96179,-11.56539 4.23507,-12.79457 -4.73791,-1.24034 -7.36388,-0.51402 -14.42604,15.50994 0,0 -22.32626,29.17612 -39.62409,38.73015 0,0 -6.49228,13.68852 -6.90573,20.56072 0,0 -4.60381,3.4417 -5.24075,-4.78259 -0.64811,-8.21313 -3.84396,-11.36428 -6.46993,-7.45328 -2.62595,3.89985 -3.62048,16.0575 -1.81023,21.29825 1.81023,5.25193 7.63205,13.16332 -6.39171,38.6631 0,0 -9.28584,18.30351 7.10686,31.42216 16.39272,13.11863 55.67042,79.56107 42.77526,90.6795 -12.89515,11.11844 12.0459,6.05649 17.94594,10.93966 5.90003,4.88317 3.20702,8.09019 12.97337,10.49267 9.75518,2.40248 7.05099,23.67836 31.64564,36.51764 24.58347,12.83927 -4.3468,31.90265 1.6985,43.84799 6.0453,11.94533 8.41425,35.22142 -7.41974,43.5798 -15.82283,8.35838 -0.11175,28.46096 7.41974,35.9254 7.53148,7.47561 43.81445,53.72608 38.29436,54.07248 -5.50894,0.35757 -78.84593,-29.3996 -115.94464,-120.44787 -37.09869,-91.05944 -49.51335,-124.67176 -51.55825,-162.13922 -2.04491,-37.47863 1.03921,-140.4387 26.42724,-180.36451 25.37685,-39.93698 11.23018,-41.24437 55.64806,-98.5574 z m 407.10239,495.5694 c 0,0 -14.4819,21.64465 -0.32406,23.15317 14.14668,1.49736 13.15218,2.65948 16.3145,-8.50365 3.16233,-11.15196 6.65989,-15.97926 15.31998,-22.80676 8.66008,-6.8275 6.65989,-18.98515 5.83298,-27.14239 -0.83807,-8.16843 -4.77142,-15.65521 -7.63205,-5.66538 -2.86063,9.98984 1.13978,13.48739 -9.35289,15.4876 -10.49267,2.0002 -10.15745,-1.16214 -12.66049,6.49226 -2.49188,7.66558 -9.487,7.49797 -7.98964,12.66049 1.49735,5.16253 0.49167,6.32466 0.49167,6.32466 z"
     fill="#6c8cc7"
     id="path7"
     style="stroke-width:0.927555" /><g
     id="g17"
     transform="matrix(0.92755489,0,0,0.92755489,51.510819,31.055801)"><path
       d="m 528.384,29.057506 c -19.46805,0 -35.27379,218.762544 -35.27379,488.207064 0,269.45656 15.80574,488.20703 35.27379,488.20703 -4.86701,-122.04873 -8.81845,-298.79113 -8.81845,-488.20704 0,-189.4159 3.95144,-366.14625 8.81845,-488.207054 z"
       fill="#DEE5F6"
       id="path8"
       style="fill:#dee5f6;fill-opacity:0.538593" /><path
       d="m 18.697035,487.17101 c 0,28.94908 237.796895,52.4529 530.697035,52.4529 292.90014,0 530.69703,-23.50382 530.69703,-52.4529 -132.67425,7.24028 -324.80075,13.11925 -530.69703,13.11925 -205.89628,0 -398.02277,-5.87897 -530.697035,-13.11925 z"
       fill="#DEE5F6"
       id="path9"
       style="fill:#dee5f6;fill-opacity:0.538593" /><path
       d="m 484.42428,10.252047 c -139.25195,0 -252.3136,224.087343 -252.3136,500.097503 0,276.02222 113.06165,500.10955 252.3136,500.10955 C 364.26692,987.60584 266.70983,771.38522 266.70983,510.34955 c 0,-261.02362 97.55709,-477.244232 217.71445,-500.097503 z"
       fill="#DEE5F6"
       id="path10"
       style="fill:#dee5f6;fill-opacity:0.538593" /><path
       d="m 30.3104,527.7696 c 0,139.264 235.96574,252.32565 526.61308,252.32565 290.64734,0 526.62512,-113.06165 526.62512,-252.32565 -24.07,120.15736 -251.75942,217.71445 -526.62512,217.71445 -274.86569,0 -502.543056,-97.55709 -526.61308,-217.71445 z"
       fill="#DEE5F6"
       id="path11"
       style="fill:#dee5f6;fill-opacity:0.538593" /><path
       d="M 477.3888,0 C 213.90758,0 0,223.13562 0,497.96518 0,772.80678 213.90758,995.93035 477.3888,995.93035 236.15849,981.90758 40.321506,763.60282 40.321506,497.96518 40.321506,232.32753 236.15849,14.022776 477.3888,0 Z m 166.02052,5.12 c 263.46917,0 477.37678,223.13562 477.37678,497.96518 0,274.8416 -213.90761,497.96522 -477.37678,497.96522 C 884.62758,987.03962 1080.4646,768.73487 1080.4646,503.08518 1080.4646,237.44753 884.62758,19.142776 643.40932,5.12 Z"
       fill="#DEE5F6"
       id="path12"
       style="fill:#dee5f6;fill-opacity:0.538593" /><path
       d="m 595.43793,19.6608 c 139.264,0 252.32565,224.08734 252.32565,500.09751 0,276.02221 -113.06165,500.10959 -252.32565,500.10959 120.15736,-22.85331 217.71445,-239.07392 217.71445,-500.10959 0,-261.02363 -97.55709,-477.244239 -217.71445,-500.09751 z"
       fill="#DEE5F6"
       id="path13"
       style="fill:#dee5f6;fill-opacity:0.538593" /><path
       d="m 28.178071,440.46456 c 0,-139.264 238.748609,-252.32564 532.829369,-252.32564 294.08075,0 532.82936,113.06164 532.82936,252.32564 -24.3592,-120.16941 -254.72301,-217.72649 -532.82937,-217.72649 -278.10635,0 -508.470206,97.55708 -532.829359,217.72649 z"
       fill="#DEE5F6"
       id="path14"
       style="fill:#dee5f6;fill-opacity:0.538593" /></g><g
     id="g398"
     transform="matrix(3.9841861,0,0,3.9841861,-2365.1542,175.91526)">
	<g
   id="g391">
		<g
   id="g376">
			<path
   style="fill:#ffffff"
   d="m 712.459,99.15 c 0,0 10.174,-18.994 9.949,-43.187 -0.227,-24.194 -18.768,-29.168 -18.768,-29.168 0,0 -4.066,-1.809 -11.302,0 0,0 -18.541,4.974 -18.766,29.168 -0.227,24.193 9.949,43.187 9.949,43.187 0,0 11.975,8.365 28.938,0 z"
   id="path375" />
			<path
   d="m 697.369,103.895 c -8.65,0 -14.084,-3.692 -14.42,-3.926 -0.129,-0.09 -0.234,-0.209 -0.309,-0.347 -0.104,-0.194 -10.294,-19.5 -10.068,-43.669 0.119,-12.857 5.391,-20.358 9.792,-24.384 4.788,-4.383 9.517,-5.686 9.714,-5.74 7.497,-1.871 11.789,-0.028 11.969,0.053 0.051,10e-4 4.778,1.304 9.568,5.687 4.401,4.026 9.671,11.527 9.793,24.384 0.227,24.17 -9.964,43.475 -10.068,43.669 -0.098,0.184 -0.252,0.331 -0.438,0.423 -5.85,2.885 -11.113,3.85 -15.533,3.85 z m -13.082,-5.442 c 1.576,0.979 12.531,7.14 27.436,-0.059 1.232,-2.436 9.892,-20.354 9.685,-42.422 -0.217,-23.107 -17.299,-28.016 -18.026,-28.213 -0.182,-0.066 -4.049,-1.687 -10.8,0.006 -0.709,0.191 -17.794,5.1 -18.008,28.207 -0.211,22.251 8.593,40.282 9.713,42.481 z m 28.172,0.697 h 0.02 z"
   id="path376" />
		</g>
		<path
   d="m 674.828,44.428 c -4.831,0 -7.171,-3.583 -7.741,-5.55 -0.154,-0.53 0.152,-1.086 0.682,-1.239 0.537,-0.158 1.084,0.15 1.239,0.679 0.06,0.2 1.324,4.366 6.284,4.097 0.617,-0.069 1.025,0.39 1.055,0.942 0.031,0.551 -0.389,1.022 -0.942,1.054 -0.196,0.011 -0.389,0.017 -0.577,0.017 z"
   id="path377" />
		<path
   d="m 673.668,50.069 c -4.831,0 -7.171,-3.583 -7.743,-5.549 -0.154,-0.53 0.152,-1.086 0.682,-1.24 0.537,-0.158 1.084,0.153 1.238,0.68 0.061,0.195 1.328,4.354 6.286,4.096 0.627,-0.018 1.026,0.391 1.055,0.941 0.031,0.552 -0.389,1.024 -0.942,1.055 -0.195,0.011 -0.388,0.017 -0.576,0.017 z"
   id="path378" />
		<g
   id="g380">
			<path
   style="fill:#ffffff"
   d="m 766.724,99.15 c 0,0 10.175,-18.994 9.949,-43.187 -0.226,-24.194 -18.767,-29.168 -18.767,-29.168 0,0 -4.067,-1.809 -11.302,0 0,0 -18.541,4.974 -18.767,29.168 -0.226,24.193 9.95,43.187 9.95,43.187 0,0 11.976,8.365 28.937,0 z"
   id="path379" />
			<path
   d="m 751.634,103.895 c -8.65,0 -14.084,-3.692 -14.42,-3.926 -0.129,-0.09 -0.234,-0.209 -0.309,-0.347 -0.104,-0.194 -10.294,-19.5 -10.068,-43.669 0.121,-12.857 5.391,-20.358 9.792,-24.384 4.79,-4.383 9.517,-5.686 9.714,-5.74 7.501,-1.871 11.789,-0.028 11.969,0.053 0.051,10e-4 4.78,1.304 9.568,5.687 4.401,4.026 9.673,11.527 9.792,24.384 0.227,24.17 -9.964,43.475 -10.068,43.669 -0.098,0.184 -0.252,0.331 -0.438,0.423 -5.849,2.885 -11.111,3.85 -15.532,3.85 z m -13.082,-5.442 c 1.576,0.979 12.533,7.14 27.436,-0.059 1.232,-2.436 9.892,-20.354 9.685,-42.422 -0.215,-23.107 -17.299,-28.016 -18.026,-28.213 -0.182,-0.066 -4.049,-1.687 -10.8,0.006 -0.709,0.191 -17.792,5.1 -18.008,28.207 -0.21,22.251 8.594,40.282 9.713,42.481 z m 28.172,0.697 h 0.02 z"
   id="path380" />
		</g>
		<path
   d="m 775.089,44.428 c -0.188,0 -0.381,-0.006 -0.576,-0.018 -0.553,-0.031 -0.973,-0.503 -0.942,-1.054 0.031,-0.552 0.436,-1.013 1.055,-0.942 4.938,0.255 6.232,-3.917 6.286,-4.098 0.16,-0.528 0.721,-0.825 1.242,-0.675 0.527,0.157 0.83,0.708 0.678,1.236 -0.572,1.968 -2.913,5.551 -7.743,5.551 z"
   id="path381" />
		<path
   d="m 776.749,50.069 c -0.187,0 -0.381,-0.006 -0.576,-0.017 -0.553,-0.031 -0.973,-0.503 -0.941,-1.055 0.031,-0.551 0.471,-0.961 1.055,-0.941 4.921,0.271 6.231,-3.919 6.284,-4.097 0.16,-0.528 0.705,-0.824 1.242,-0.674 0.528,0.156 0.83,0.707 0.678,1.236 -0.571,1.966 -2.911,5.548 -7.742,5.548 z"
   id="path382" />
		<path
   d="m 678.334,19.243 c 0,0 17.699,-20.796 36.724,0 0,0 -19.689,-10.398 -36.724,0 z"
   id="path383" />
		<path
   d="m 771.029,19.243 c 0,0 -17.698,-20.796 -36.724,0 0,0 19.691,-10.398 36.724,0 z"
   id="path384" />
		<path
   d="m 723.437,99.801 c 0.011,-0.067 0.022,-0.135 0.031,-0.203 0.011,-0.095 0.024,-0.189 0.041,-0.281 0.007,-0.042 0.015,-0.084 0.024,-0.126 0.02,-0.107 -0.021,0.087 0.005,-0.021 0.046,-0.192 0.095,-0.383 0.154,-0.572 0.109,-0.356 0.249,-0.703 0.357,-1.06 0.104,-0.343 0.219,-0.684 0.332,-1.023 0.025,-0.074 0.008,-0.143 -0.015,-0.205 -0.329,0.132 -0.681,0.287 -1.006,0.45 -0.116,0.177 -0.234,0.353 -0.349,0.532 -0.209,0.33 -0.378,0.675 -0.539,1.03 -0.145,0.32 -0.276,0.646 -0.382,0.982 -0.042,0.132 -0.075,0.266 -0.107,0.399 -0.671,-0.02 -1.349,-0.013 -2.042,0.055 -2.253,0.22 -4.655,0.558 -6.597,1.807 -4.991,3.212 -0.685,10.384 2.101,13.56 1.402,1.598 3.216,3.309 5.268,4.257 -2.072,-1.921 -3.81,-4.231 -5.15,-6.639 -0.836,-1.5 -1.498,-3.165 -1.924,-4.828 -0.168,-0.66 -0.325,-1.51 -0.298,-2.317 -0.063,-0.9 0.081,-1.747 0.668,-2.312 1.236,-1.188 3.654,-1.432 5.261,-1.688 1.967,-0.313 3.989,-0.309 5.999,-0.153 1.594,-0.096 3.192,-0.158 4.792,-0.185 -2.225,-0.615 -4.391,-1.217 -6.624,-1.459 z"
   id="path385" />
		<g
   id="g388">
			<defs
   id="defs385" />
			<clipPath
   id="SVGID_00000160161358336959112020000009322808011237357990_">
				<use
   xlink:href="#SVGID_1_"
   style="overflow:visible"
   id="use385" />
			</clipPath>
			<g
   clip-path="url(#SVGID_00000160161358336959112020000009322808011237357990_)"
   id="g387">
				<path
   d="m 713.4,68.999 c 0,12.855 -7.462,23.276 -16.667,23.276 -9.205,0 -16.668,-10.42 -16.668,-23.276 0,-12.854 7.463,-23.275 16.668,-23.275 9.205,0 16.667,10.421 16.667,23.275 z"
   id="path386" />
				<path
   style="fill:#ffffff"
   d="m 718.618,60.274 c 0,6.153 -3.572,11.142 -7.978,11.142 -4.407,0 -7.979,-4.989 -7.979,-11.142 0,-6.153 3.573,-11.141 7.979,-11.141 4.406,0 7.978,4.988 7.978,11.141 z"
   id="path387" />
			</g>
		</g>
		<g
   id="g390">
			<defs
   id="defs388" />
			<clipPath
   id="SVGID_00000176036809989328709970000000647076748484096143_">
				<use
   xlink:href="#SVGID_00000108990672343663186690000014517496184309745078_"
   style="overflow:visible"
   id="use388" />
			</clipPath>
			<g
   clip-path="url(#SVGID_00000176036809989328709970000000647076748484096143_)"
   id="g389">
				<path
   d="m 770.154,68.999 c 0,12.855 -7.463,23.276 -16.668,23.276 -9.206,0 -16.668,-10.42 -16.668,-23.276 0,-12.854 7.463,-23.275 16.668,-23.275 9.205,0 16.668,10.421 16.668,23.275 z"
   id="path388" />
				<path
   style="fill:#ffffff"
   d="m 775.372,60.274 c 0,6.153 -3.573,11.142 -7.98,11.142 -4.406,0 -7.978,-4.989 -7.978,-11.142 0,-6.153 3.572,-11.141 7.978,-11.141 4.407,0 7.98,4.988 7.98,11.141 z"
   id="path389" />
			</g>
		</g>
		<path
   style="fill:#fabfbc"
   d="m 689.286,108.225 c 0,3.849 -5.571,6.97 -12.444,6.97 -6.873,0 -12.444,-3.12 -12.444,-6.97 0,-3.848 5.571,-6.968 12.444,-6.968 6.872,0 12.444,3.12 12.444,6.968 z"
   id="path390" />
		<path
   style="fill:#fabfbc"
   d="m 790,106.567 c 0,3.848 -5.571,6.969 -12.444,6.969 -6.872,0 -12.443,-3.121 -12.443,-6.969 0,-3.849 5.571,-6.969 12.443,-6.969 6.873,0 12.444,3.12 12.444,6.969 z"
   id="path391" />
	</g>
	<g
   id="g393">
		<path
   style="fill:#ffffff"
   d="m 735.278,49.891 c 8.607,-6.805 20.35,-9.976 30.7,-5.266 4.219,1.919 7.731,4.919 10.534,8.526 -1.59,-21.729 -18.605,-26.355 -18.605,-26.355 0,0 -4.067,-1.809 -11.302,0 0,0 -18.541,4.974 -18.767,29.168 -0.007,0.773 0.025,1.525 0.038,2.287 1.863,-3.24 4.51,-6.073 7.402,-8.36 z"
   id="path392" />
		<path
   d="m 727.875,59.248 c -0.084,0 -0.168,-0.01 -0.25,-0.03 -0.436,-0.114 -0.742,-0.505 -0.75,-0.954 l -0.018,-0.772 c -0.012,-0.511 -0.025,-1.021 -0.02,-1.538 0.121,-12.857 5.391,-20.358 9.792,-24.384 4.79,-4.383 9.517,-5.686 9.714,-5.74 7.501,-1.871 11.789,-0.028 11.969,0.053 v 0 c 0.043,0 17.575,5.024 19.198,27.196 0.031,0.441 -0.229,0.848 -0.639,1.007 -0.41,0.156 -0.877,0.028 -1.149,-0.321 -2.879,-3.704 -6.298,-6.471 -10.16,-8.229 -9.068,-4.131 -20.435,-2.158 -29.664,5.142 v 0 c -3.014,2.382 -5.489,5.174 -7.157,8.071 -0.181,0.314 -0.515,0.499 -0.866,0.499 z m 24.837,-32.249 c -1.6,0 -3.565,0.191 -5.866,0.767 -0.697,0.19 -17.297,4.957 -17.989,27.205 1.594,-2.1 3.559,-4.092 5.8,-5.863 9.822,-7.764 21.98,-9.832 31.735,-5.394 3.233,1.471 6.169,3.59 8.763,6.322 -2.791,-18.012 -16.881,-22.102 -17.512,-22.276 -0.117,-0.043 -1.836,-0.761 -4.931,-0.761 z m -17.434,22.894 h 0.02 z"
   id="path393" />
	</g>
	<g
   id="g395">
		<path
   style="fill:#ffffff"
   d="m 699.742,40.335 c 6.015,0.905 12.648,3.67 16.826,8.234 2.792,3.049 4.404,6.75 5.787,10.56 0.028,-1.049 0.062,-2.096 0.053,-3.166 -0.227,-24.194 -18.768,-29.168 -18.768,-29.168 0,0 -4.066,-1.809 -11.302,0 0,0 -16.761,4.545 -18.576,25.84 5.757,-8.209 15.832,-13.828 25.98,-12.3 z"
   id="path394" />
		<path
   d="m 722.355,60.129 c -0.416,0 -0.795,-0.259 -0.94,-0.659 -1.291,-3.553 -2.86,-7.251 -5.585,-10.227 -3.639,-3.976 -9.71,-6.936 -16.237,-7.92 v 0 c -9.159,-1.373 -18.979,3.286 -25.013,11.886 -0.258,0.373 -0.734,0.524 -1.16,0.365 -0.424,-0.155 -0.693,-0.574 -0.654,-1.023 1.852,-21.744 19.138,-26.675 19.311,-26.721 7.505,-1.875 11.791,-0.03 11.97,0.051 0.051,0.001 4.778,1.304 9.568,5.687 4.401,4.026 9.671,11.527 9.793,24.384 0.01,0.994 -0.018,1.966 -0.045,2.939 l -0.008,0.263 c -0.014,0.482 -0.367,0.883 -0.84,0.959 -0.055,0.011 -0.108,0.016 -0.16,0.016 z M 696.382,39.084 c 1.174,0 2.346,0.086 3.508,0.262 v 0 c 6.966,1.049 13.477,4.245 17.417,8.547 1.719,1.878 3.002,3.985 4.042,6.154 -1.113,-21.456 -17.262,-26.093 -17.967,-26.287 -0.182,-0.066 -4.049,-1.687 -10.8,0.006 -0.598,0.165 -14.258,4.117 -17.358,21.405 5.648,-6.378 13.436,-10.087 21.158,-10.087 z"
   id="path395" />
	</g>
	<g
   id="g397">
		<path
   style="fill:#e35e5b"
   d="m 753.628,137.67 c -0.915,-4.172 -3.746,-8.009 -7.839,-10.213 -4.362,-2.348 -9.765,-2.861 -14.349,-0.803 -3.621,1.625 -6.194,4.665 -8.168,8.02 -1.114,-2.137 -1.581,-4.616 -3.32,-6.455 -10.652,-11.268 -24.882,6.197 -20.387,16.899 2.734,6.506 13.503,13.06 19.911,13.938 12.12,1.658 38.152,-3.141 34.152,-21.386 z"
   id="path396" />
		<path
   d="m 724.286,160 c -1.797,0 -3.456,-0.107 -4.897,-0.304 -6.878,-0.944 -17.653,-7.738 -20.421,-14.328 -2.872,-6.837 1.485,-15.744 7.192,-19.464 4.909,-3.203 10.111,-2.519 14.262,1.869 1.235,1.307 1.861,2.883 2.467,4.411 0.154,0.386 0.303,0.761 0.459,1.128 2.26,-3.529 4.829,-5.906 7.825,-7.25 4.575,-2.049 10.152,-1.743 14.922,0.823 4.139,2.23 7.191,6.21 8.165,10.645 v 0 c 1.151,5.25 -0.004,9.792 -3.43,13.506 -6.003,6.505 -17.874,8.964 -26.544,8.964 z M 712.39,125.205 c -2.268,0 -4.219,0.936 -5.524,1.786 -5.278,3.439 -9.329,11.627 -6.702,17.877 2.567,6.113 12.988,12.666 19.401,13.548 8.122,1.102 23.378,-0.745 30.315,-8.258 3.122,-3.383 4.171,-7.537 3.116,-12.35 v 0 c -0.892,-4.072 -3.701,-7.729 -7.513,-9.782 -4.419,-2.378 -9.568,-2.673 -13.777,-0.783 -3.028,1.359 -5.604,3.896 -7.874,7.759 -0.121,0.203 -0.387,0.303 -0.576,0.318 -0.234,-0.007 -0.448,-0.14 -0.557,-0.349 -0.393,-0.751 -0.707,-1.544 -1.012,-2.31 -0.586,-1.478 -1.141,-2.873 -2.205,-3.998 -2.462,-2.601 -4.922,-3.458 -7.092,-3.458 z"
   id="path397" />
	</g>
	<path
   d="m 724.534,144.684 c -9.515,0 -16.53,-4.176 -16.641,-4.245 -0.471,-0.286 -0.619,-0.902 -0.332,-1.373 0.287,-0.467 0.9,-0.623 1.373,-0.334 0.166,0.1 16.696,9.899 32.967,-1.73 0.451,-0.32 1.075,-0.22 1.397,0.231 0.32,0.449 0.217,1.074 -0.232,1.397 -6.442,4.602 -12.921,6.054 -18.532,6.054 z"
   id="path398" />
</g></svg>
