<svg xmlns="http://www.w3.org/2000/svg" xmlns:xlink="http://www.w3.org/1999/xlink" viewBox="0 0 470.61 86.49"><defs><linearGradient id="未命名的渐变_2" x1="0.23" y1="47.52" x2="150.93" y2="47.52" gradientUnits="userSpaceOnUse"><stop offset="0" stop-color="#14387f"/><stop offset="0.09" stop-color="#0f4f7b"/><stop offset="0.27" stop-color="#077775"/><stop offset="0.41" stop-color="#028f71"/><stop offset="0.5" stop-color="#009870"/><stop offset="0.59" stop-color="#028f71"/><stop offset="0.73" stop-color="#077775"/><stop offset="0.91" stop-color="#0f4f7b"/><stop offset="1" stop-color="#14387f"/></linearGradient><linearGradient id="未命名的渐变_2-2" x1="0.23" y1="27.35" x2="150.93" y2="27.35" xlink:href="#未命名的渐变_2"/><linearGradient id="未命名的渐变_2-3" x1="0.23" y1="65.63" x2="150.93" y2="65.63" xlink:href="#未命名的渐变_2"/><linearGradient id="未命名的渐变_2-4" x1="0.23" y1="50.44" x2="150.93" y2="50.44" xlink:href="#未命名的渐变_2"/><linearGradient id="未命名的渐变_2-5" x1="0.23" y1="65.44" x2="150.93" y2="65.44" xlink:href="#未命名的渐变_2"/><linearGradient id="未命名的渐变_2-6" x1="0.23" y1="74.42" x2="150.93" y2="74.42" xlink:href="#未命名的渐变_2"/><linearGradient id="未命名的渐变_2-7" x1="0.23" y1="75.2" x2="150.93" y2="75.2" xlink:href="#未命名的渐变_2"/><linearGradient id="未命名的渐变_2-8" x1="0.23" y1="35.95" x2="150.93" y2="35.95" xlink:href="#未命名的渐变_2"/><linearGradient id="未命名的渐变_2-9" x1="0.23" y1="67.64" x2="150.93" y2="67.64" xlink:href="#未命名的渐变_2"/><linearGradient id="未命名的渐变_2-10" x1="0.23" y1="21.01" x2="150.93" y2="21.01" xlink:href="#未命名的渐变_2"/><linearGradient id="未命名的渐变_2-11" x1="0.23" y1="53.54" x2="150.93" y2="53.54" xlink:href="#未命名的渐变_2"/><linearGradient id="未命名的渐变_2-12" x1="0.23" y1="43.25" x2="150.93" y2="43.25" xlink:href="#未命名的渐变_2"/><linearGradient id="未命名的渐变_2-13" x1="0.23" y1="21.04" x2="150.93" y2="21.04" xlink:href="#未命名的渐变_2"/><linearGradient id="未命名的渐变_2-14" x1="0.23" y1="7.33" x2="150.93" y2="7.33" xlink:href="#未命名的渐变_2"/><linearGradient id="未命名的渐变_2-15" x1="0.23" y1="34.49" x2="150.93" y2="34.49" xlink:href="#未命名的渐变_2"/><linearGradient id="未命名的渐变_2-16" x1="0.23" y1="15.37" x2="150.93" y2="15.37" xlink:href="#未命名的渐变_2"/><linearGradient id="linear-gradient" x1="192.77" y1="77.7" x2="299.33" y2="7.17" gradientUnits="userSpaceOnUse"><stop offset="0.11" stop-color="#14387f"/><stop offset="0.29" stop-color="#0b6278"/><stop offset="0.48" stop-color="#038972"/><stop offset="0.58" stop-color="#009870"/><stop offset="0.7" stop-color="#067a75"/><stop offset="0.9" stop-color="#104a7c"/><stop offset="1" stop-color="#14387f"/></linearGradient></defs><title>Asset 3</title><g id="Layer_2" data-name="Layer 2"><g id="Layer_1-2" data-name="Layer 1"><rect x="298.3" y="6.36" width="64.53" height="79.27" style="fill:#f2f2f2"/><path d="M307.77,53.91h4.28c1.83,0,3,1,3,2.52a2.19,2.19,0,0,1-1.76,2.25v.09a2.39,2.39,0,0,1,2.28,2.5c0,1.83-1.48,2.89-3.56,2.89h-4.27Zm2,4.26h1.33c1.36,0,2-.5,2-1.39a1.31,1.31,0,0,0-1.5-1.35h-1.79Zm0,4.46h1.5c1.6,0,2.25-.51,2.25-1.48s-.64-1.56-1.83-1.56h-1.92Z" style="fill:#3c3c3b"/><path d="M316.44,60.64V59.7a3.53,3.53,0,1,1,7.05,0v.91h-5.11V61a1.64,1.64,0,0,0,1.69,1.79c.81,0,1.38-.39,1.47-.89h1.88c-.09,1-1.07,2.41-3.35,2.41A3.36,3.36,0,0,1,316.44,60.64Zm5.14-1.23v-.08a1.61,1.61,0,1,0-3.2,0v.08Z" style="fill:#3c3c3b"/><path d="M325.87,52.74a1.1,1.1,0,1,1-1.24,1.1A1.12,1.12,0,0,1,325.87,52.74Zm-1,3.45h2v8h-2Z" style="fill:#3c3c3b"/><path d="M330.91,64.32A2.35,2.35,0,0,1,328.28,67a7.74,7.74,0,0,1-.81,0V65.47a2.54,2.54,0,0,0,.43,0c.75,0,1-.37,1-1.2V56.19h2Zm-1-11.58a1.1,1.1,0,1,1-1.24,1.1A1.13,1.13,0,0,1,329.92,52.74Z" style="fill:#3c3c3b"/><path d="M333.83,52.74a1.1,1.1,0,1,1-1.24,1.1A1.12,1.12,0,0,1,333.83,52.74Zm-1,3.45h2v8h-2Z" style="fill:#3c3c3b"/><path d="M336.63,56.19h1.93V57.6h.09A2.26,2.26,0,0,1,341,56.07a2.45,2.45,0,0,1,2.65,2.75v5.34h-2V59.38c0-1.18-.62-1.66-1.43-1.66-1.07,0-1.68.82-1.68,2v4.42h-2Z" style="fill:#3c3c3b"/><path d="M350.24,63.89V62.76h-.1A2.31,2.31,0,0,1,347.91,64c-1.74,0-3-1.26-3-3.52v-.87c0-2.26,1.26-3.53,3-3.53a2.3,2.3,0,0,1,2.27,1.33h.1V56.19h1.94V64c0,2.27-1.81,3.07-3.77,3.07-2.27,0-3.31-1.1-3.39-2.32H347c.11.51.69.86,1.53.86A1.54,1.54,0,0,0,350.24,63.89Zm-3.32-4.1v.62c0,1.32.71,2.12,1.71,2.12s1.61-.85,1.61-2v-.91c0-1.13-.61-2-1.62-2S346.92,58.48,346.92,59.79Z" style="fill:#3c3c3b"/><circle cx="42.16" cy="42.73" r="41.79" style="fill:#fff"/><circle cx="109.2" cy="43.29" r="42.34" style="fill:#fff"/><path d="M143.75,49.35a34.76,34.76,0,0,0,.2-11.1l-3.41.48a32.14,32.14,0,0,1-2.16,16.73l3.19,1.33A35.33,35.33,0,0,0,143.75,49.35Z" style="fill:url(#未命名的渐变_2)"/><path d="M131.92,21.15A31.85,31.85,0,0,1,140,35.94l3.36-.79a35.21,35.21,0,0,0-9-16.4Z" style="fill:url(#未命名的渐变_2-2)"/><path d="M125.6,70.29l1.8,2.95a35.13,35.13,0,0,0,12.82-13.6L137.17,58A31.63,31.63,0,0,1,125.6,70.29Z" style="fill:url(#未命名的渐变_2-3)"/><path d="M71.22,56.38l3.14,1.44A34.82,34.82,0,0,0,77.54,43.2v-.13l-3.46.13A31.39,31.39,0,0,1,71.22,56.38Z" style="fill:url(#未命名的渐变_2-4)"/><path d="M60.76,69l2,2.81A35.66,35.66,0,0,0,72.84,60.77l-3-1.73A32,32,0,0,1,60.76,69Z" style="fill:url(#未命名的渐变_2-5)"/><path d="M45.73,78.19A34.69,34.69,0,0,0,60,73.64l-1.73-3A31.36,31.36,0,0,1,45.4,74.76Z" style="fill:url(#未命名的渐变_2-6)"/><path d="M29.23,72.05l-1.44,3.14a34.89,34.89,0,0,0,14.59,3.16h0l0-3.45A31.43,31.43,0,0,1,29.23,72.05Z" style="fill:url(#未命名的渐变_2-7)"/><path d="M7.23,43.2v.07l3.46-.07a31.48,31.48,0,0,1,2.83-13.13l-3.14-1.43A34.83,34.83,0,0,0,7.23,43.2Z" style="fill:url(#未命名的渐变_2-8)"/><path d="M16.57,61.61l-2.81,2A35.74,35.74,0,0,0,24.84,73.67l1.73-3A32.14,32.14,0,0,1,16.57,61.61Z" style="fill:url(#未命名的渐变_2-9)"/><path d="M24,17.41l-2-2.81a35.51,35.51,0,0,0-10,11.09l3,1.72A32,32,0,0,1,24,17.41Z" style="fill:url(#未命名的渐变_2-10)"/><path d="M15,59.09a31.38,31.38,0,0,1-4.12-12.84l-3.44.33A34.72,34.72,0,0,0,12,60.83Z" style="fill:url(#未命名的渐变_2-11)"/><path d="M151.55,43.2a42.26,42.26,0,0,0-23-37.68h0a1.79,1.79,0,0,0-.8-.21A1.74,1.74,0,0,0,126,7.06a1.72,1.72,0,0,0,1.11,1.61,38.93,38.93,0,0,1-6,71.56l-.92-3.7a35.82,35.82,0,0,0,4.61-1.86l-1.55-3.09a31.13,31.13,0,0,1-3.89,1.59l-.12-.45-3.39.86.13.53c-.68.15-1.36.29-2,.4l0-.51-3.49.26,0,.59c-.72,0-1.43,0-2.14,0l.06-.58-3.48-.36-.07.66c-.71-.1-1.4-.22-2.1-.36l.16-.53-3.38-1-.17.59c-.67-.22-1.34-.47-2-.73l.25-.53-3.15-1.52-.28.56c-.62-.34-1.24-.7-1.85-1.08l.35-.48-2.84-2-.37.52c-.56-.45-1.1-.91-1.63-1.39l.43-.41L85.83,63.7l-.46.45c-.41-.47-.8-1-1.19-1.44L84,62.47c-.32-.42-.62-.85-.92-1.28-.49-.71-.95-1.44-1.38-2.18a43.22,43.22,0,0,0,1.74-5.3,28.4,28.4,0,0,0,1.25,2.68h-.12l.26.22A27.78,27.78,0,1,0,81.35,43.2c0,.06,0,.12,0,.18L81,48.15a38.93,38.93,0,1,1-50.62-42l.91,3.66a34.74,34.74,0,0,0-6.56,3l1.74,3a31.87,31.87,0,0,1,5.65-2.57l.14.56,3.4-.86-.16-.65c.68-.15,1.37-.29,2.07-.39l0,.62,3.5-.26-.05-.68c.45,0,.89-.05,1.33-.05.28,0,.55,0,.82,0l-.07.68,3.49.35.08-.76.37,0c.53.08,1.06.17,1.58.28a.76.76,0,0,1,.16,0l-.18.64,3.37.95.2-.69.38.12,1.23.44.29.12.13,0-.31.63L57.08,16l.33-.68c.25.13.49.28.74.42h0c.38.22.75.45,1.12.68l-.41.57,2.84,2,.43-.59c.56.45,1.11.92,1.64,1.4l-.49.48,2.44,2.51.5-.48c.46.52.91,1.07,1.33,1.62a33.54,33.54,0,0,1,2.29,3.43,40.64,40.64,0,0,0-1.71,5.17A27.87,27.87,0,1,0,70.24,43.2v-.14a38.57,38.57,0,0,1,12-28l1.13-1h0A1.72,1.72,0,1,0,81,11.56h0l-1.12,1a43.26,43.26,0,0,0-4.13,4.56c-.59-.76-1.21-1.5-1.86-2.21l.65-.63L72.1,11.77l-.66.64c-1-.92-2-1.8-3-2.63l.51-.7L66.07,7l-.52.72C64.43,7,63.28,6.32,62.09,5.69l.38-.76L59.31,3.41l-.39.79c-1.22-.52-2.47-1-3.76-1.41L55.4,2,52,1l-.25.86c-1.29-.29-2.6-.54-3.94-.71l.09-.8L44.43,0l-.09.87c-.65,0-1.3-.07-2-.07S41,.83,40.32.87L40.26,0l-3.5.26.07.93c-1.33.17-2.63.41-3.91.7L32.7,1l-3.4.86.23.94A42.38,42.38,0,1,0,75.77,69.27c.61.79,1.25,1.55,1.91,2.29l-.68.65,2.45,2.51.69-.66c1,.92,2,1.78,3,2.6l-.55.75,2.84,2,.57-.77c1.12.73,2.27,1.41,3.45,2l-.41.84,3.15,1.53.43-.88c1.23.52,2.48,1,3.75,1.39l-.26.92,3.37,1,.28-1c1.29.29,2.6.53,3.93.7l-.1.91,3.49.35.1-1c.64,0,1.29,0,1.94,0s1.38,0,2.06,0l.07,1,3.49-.25-.07-1c1.32-.17,2.62-.41,3.9-.7l.24,1,3.4-.86-.26-1A42.44,42.44,0,0,0,151.55,43.2ZM109.16,19.14a24,24,0,0,1,20.1,37.25h-5.57c-.35-1.9-.71-3.79-1.07-5.69.15-.81,2.51-.83,2.95-1.89a1.34,1.34,0,0,0,0-1.13c-.29-.41-4.27-1.76-5-2a7.08,7.08,0,0,1-.45-.94l0-.19c.56-.9,2-1.1,2.64-1.93,1.27-1.58-.86-2.58-2.08-3-.59-.2-3.89-.71-4.12-1-1.48-2.06,4-2.6,2.65-4.91-.81-1.39-4.11-1.86-5.74-2.54a9.35,9.35,0,0,1-3.1-2.26c-.19-.33,0-.89-.15-1.36-.12-.3-.48-.58-.65-.91a5.7,5.7,0,0,0,.38-2.15c-.15-.34-.51-.44-1-.42l-.53.34a5.83,5.83,0,0,0,.38,2.23c-.16.34-.52.61-.64.91-.2.47,0,1-.15,1.36a9.55,9.55,0,0,1-3.1,2.26c-1.63.68-4.94,1.16-5.75,2.54-.4.69.17,1.46.42,1.77.81,1,3.27,1.49,2.12,3.25-2.1.44-8.61,1.4-5.79,4.16a5.06,5.06,0,0,0,1.21.68,4.64,4.64,0,0,1,1.2,1s-.31.71-.48,1.08c-.66.88-4.36,1.13-5,2.08-1.27,1.8,2.56,2.13,2.75,3,.15.62-.66,3.91-1.06,5.73h-5.4a24,24,0,0,1,20.1-37.25Zm-35.51.91q-1.14,1.74-2.1,3.57c-.2-.3-.39-.6-.6-.89h0c-.35-.49-.72-1-1.09-1.45s-.74-.88-1.12-1.32l0-.05,2.7-2.6C72.19,18.19,72.94,19.1,73.65,20.05ZM69,14.8l-2.7,2.6q-1-.95-2.1-1.8l2.2-3C67.26,13.28,68.13,14,69,14.8Zm-5.44-4.26-2.2,3c-.78-.5-1.58-1-2.39-1.39L60.57,8.8C61.58,9.34,62.56,9.92,63.52,10.54ZM57.41,7.3l-1.65,3.37c-.85-.35-1.72-.66-2.6-.94l1-3.62C55.29,6.46,56.36,6.86,57.41,7.3ZM50.82,5.21l-1,3.61-.26-.05-.8-.15c-.45-.08-.89-.15-1.34-.21l-.31-.05.4-3.76C48.6,4.75,49.71,5,50.82,5.21Zm-8.44-.94c.54,0,1.06,0,1.59.05l-.4,3.76c-.39,0-.79,0-1.19,0h-.1c-.49,0-1,0-1.46,0l-.26-3.78C41.16,4.29,41.77,4.27,42.38,4.27Zm-5.31.37.25,3.77c-.88.13-1.76.29-2.62.49h-.05l-.9-3.66C34.84,5,35.94,4.8,37.07,4.64Zm40.8,61.7c.75-1.15,1.44-2.35,2.08-3.57.47.68,1,1.35,1.46,2,.2.27.42.52.63.78s.56.67.85,1l-2.72,2.62C79.36,68.26,78.59,67.32,77.87,66.34Zm4.76,5.32L85.35,69l.79.7,0,0c.42.37.87.71,1.31,1.06l-2.21,3C84.32,73.17,83.46,72.43,82.63,71.66Zm5.45,4.23,2.21-3q1.15.73,2.37,1.38L91,77.61C90,77.08,89,76.51,88.08,75.89Zm6.1,3.21,1.65-3.37c.85.34,1.71.67,2.58.94l-1,3.61C96.29,79.93,95.23,79.54,94.18,79.1Zm6.58,2.09,1-3.63c.4.08.79.18,1.19.25l.14,0v0c.45.07.9.15,1.35.21l-.4,3.75C103,81.64,101.86,81.43,100.76,81.19Zm8.4.94c-.53,0-1,0-1.58,0l.4-3.77c.4,0,.8,0,1.19,0s1,0,1.55-.06l.26,3.79C110.38,82.11,109.77,82.13,109.16,82.13Zm5.31-.37-.26-3.8c.89-.13,1.78-.3,2.65-.5l.92,3.7C116.69,81.4,115.59,81.6,114.47,81.76Z" style="fill:url(#未命名的渐变_2-12)"/><path d="M79.41,24.43l2.92,1.84a31.69,31.69,0,0,1,6.61-7.48v0a1.7,1.7,0,0,0,.54-1.24,1.72,1.72,0,0,0-1.73-1.73,1.69,1.69,0,0,0-1.07.41h0l-.08.07-.08.07A35.13,35.13,0,0,0,79.41,24.43Z" style="fill:url(#未命名的渐变_2-13)"/><path d="M91.61,12.34c.63,0,1.39,0,2,0,1.32-.06,5.41-.47,6.27-.6,4-.56,14-3.84,19.15-6.53.67-.35,1.76-1,1.51-2.1a3.15,3.15,0,0,0-1.21-.46l-.63,0a6.35,6.35,0,0,0-4.14.2c-2.39.89-3.24,1.13-5.58,2.1-.9.37-2.63,1.12-3.08,1.27a6.61,6.61,0,0,1-2.56.1C101.64,6.12,98,6,96.29,5.9l-1.55.46c-.12.12-.11.19,0,.26l.29,0c.75.18,5.19,1.15,5.49,1.22,0,0,0,.05,0,.05l-2.37.92a5.15,5.15,0,0,1-1.62.42A5.63,5.63,0,0,1,95,8.56c-.73-.4-1.77-.94-2.07-1.12a6.49,6.49,0,0,0-1.74-.82,3.24,3.24,0,0,0-1.74.56v.07c.17.24,1.71,2.77,2.1,3.4,0,0-.09,0-.2,0a8,8,0,0,0-1.25.13c-.52.16-1,.36-1.38.49v0l2.57.53A.78.78,0,0,0,91.61,12.34Z" style="fill:url(#未命名的渐变_2-14)"/><path d="M77.87,27.17a35.56,35.56,0,0,0-3.82,14.65h3.46a32.12,32.12,0,0,1,3.43-13.08Z" style="fill:url(#未命名的渐变_2-15)"/><path d="M123.23,14.82h0a31.24,31.24,0,0,1,6.62,4.37l2.26-2.62a34.69,34.69,0,0,0-7.42-4.87v0a1.63,1.63,0,0,0-.85-.18,1.71,1.71,0,0,0-.6,3.26Z" style="fill:url(#未命名的渐变_2-16)"/><path d="M58.23,27.59c0-.27-.16-.46-.06-.76h0c.13.07.17.21.26.31s.25.12.39.21.39.51.7.66h.23a2.39,2.39,0,0,1,.63.51c0,.09,0,.18,0,.24s.07-.07.12,0,.07.15.14.22a1.67,1.67,0,0,0,.2.13A.29.29,0,0,1,61,29l.44.55v0c-.12.06-.2.15-.38.14l-.14-.1c-.05,0-.14.09-.2.06-.29-.1-.2-.65-.38-.87h0a.34.34,0,0,1-.12.28l-.27.12c-.13,0-.23,0-.32,0l-.1.11,0,.15a1.89,1.89,0,0,1,.36,0c0,.11.09.36.18.44s.19,0,.27,0a1.66,1.66,0,0,1,.3.34.8.8,0,0,1-.31.48l-.08-.08v-.29h-.06a1,1,0,0,0-.31.78.36.36,0,0,1,.2.2,2.17,2.17,0,0,0-.44.87c0,.12.08.26.11.42a.24.24,0,0,1,.16.19l0,.36a2,2,0,0,0-.27,1c.1.22.64.84.48,1.19l-.09.11h0a4.54,4.54,0,0,0-.58-1.07c-.22-.08-.56-.18-.74,0,0,.08,0,.08,0,.15l-.13.08c-.47-.09-.6.08-.83.41l.18.64c.08.3,0,.58.13.85s.46.87.86.83l.12-.1.1-.64a.81.81,0,0,1,.35-.2l.16.2c.05.11,0,.29,0,.44l.09.3,0,.54.1,0,.29-.08c.17.19.24.15.4.27.11.48-.06,1.48.44,1.6l.18-.27c.23,0,.29.2.49.27l0-.07,0-.39c.16-.1.65-.56.81-.5s.15.26.26.38l.53.13c.11,0,.17-.12.28-.08l.1.2a2.57,2.57,0,0,1,.83,1.09c.15,0,.34.13.61.15a2.88,2.88,0,0,1,.32.57c0,.12,0,.17,0,.27l.14.29c0,.31-.2.33-.18.58h0l.17-.08.2.25c.25.13.32,0,.51.2,0,.46.22.31.48.5a7.05,7.05,0,0,1,.7.93,2.74,2.74,0,0,1-.38,1.27l-.31.33,0,.36a1.38,1.38,0,0,0-.33.2,4.16,4.16,0,0,1-.59,1.79l-.18.18c-.15.25-.27.59-.51.7h-.23a1.81,1.81,0,0,0-.87.54l-.43.83-.61.64-.21.11c-.15.22-.24.52-.48.61s-.33-.07-.47,0a1,1,0,0,1-.9.84c-.14,0-.16-.1-.26-.09s-.09.22-.19.32-.2,0-.34.11l0,0,0,.24c-.21.16-.41.38-.63.52l-.24.12c-.09.13,0,.33-.09.45a3.61,3.61,0,0,1-.78.54c-.15.1-.11.39-.31.44,0,.08,0,.07,0,.13l.11-.07,0,0,0,.1-.09.07c0,.13.15.3.1.43l0,0a1.34,1.34,0,0,1-.69-.32l0-.27-.11-.06c.1-.1.1-.34.11-.52.33-.09.42-.62.72-.8,0-.15-.09-.23,0-.32s.21-.13.38-.19c.13-.32.44-.38.52-.67l-.17-.26v-.06c.28-.19.37-.56.57-.86s.38-.34.51-.54l.2-.54c.15-.33.31-.65.47-1l.2-.19.36-.71.1-.59c.11-.25.44-.4.39-.84a2,2,0,0,0-.29-.82c-.07-.11-.2-.21-.22-.35l0-.37c0-.23-.09-.47-.11-.67s.06-.57,0-.85-.22-.33-.24-.48,0-.26,0-.35.2-.22.24-.43l-.12-.26c0-.13.08-.22.1-.29v-.3c.06-.21.29-.41.37-.67a2.26,2.26,0,0,0,0-1c0-.24,0-.43-.12-.58-.17.07-.2.21-.31.36h-.06c-.08-.15-.22-.16-.34-.28s0-.15-.07-.22l-.26-.18c-.1-.2-.11-.41-.26-.57l-.65-.4L58.68,38l-.24.13a3,3,0,0,1-1.53-1,8.57,8.57,0,0,0-.3-.84,4.92,4.92,0,0,0-1-1.06l-.48-.76H55l0,.07,0,0c.32.19.26.4.44.67.25,0,.31.37.4.55s.44.21.33.61h-.07a4.34,4.34,0,0,1-.46-.58c0-.1-.06-.25-.13-.33l-.18,0c-.15-.11-.13-.29-.22-.45a5.19,5.19,0,0,0-.52-.77c-.24-.27-.36-.24-.66-.44,0,0-.38-.53-.4-.57s0-.14,0-.19a2.39,2.39,0,0,1-.81-1.54l0-.31h0L52.46,31c-.05-.11,0-.28-.15-.33s-.4-.06-.5-.26L51.74,30c0-.06-.16-.11-.21-.16l-.29-.45L51,29.5a2.27,2.27,0,0,0-.6-.7l-.27,0-.39-.17-.42-.05-.47-.23,0,0a.53.53,0,0,1-.27.41h0c0-.09-.08-.23-.14-.32l-.08,0,0,.09c0,.58-.41.86-.75,1.12l-.07,0v-.09a2.2,2.2,0,0,0,.33-.4l0-.22H47.6c-.3.15-1-.4-1-.69s.28-.23.4-.38v-.05L47,27.72a.52.52,0,0,1-.64-.27V27.4l.2-.2c.14,0,.16.12.31.13l0,0c-.11-.19-.38-.23-.49-.41.19-.6.48-.48.83-.8.11,0,.12.1.19.13h.3c.41,0,1,.25,1.31.07.12.06.16.18.3.19a.7.7,0,0,1,.19-.29c.14,0,.19,0,.29,0s.12.1.23.09a.5.5,0,0,1,.13-.24h.06l.11.13h.06l.11-.16.15.14c.24.11.53-.12.71,0l0,.09.06,0v0L51.4,26l.14-.07v-.08c-.1,0-.2.1-.27,0s-.11-.12-.17-.19-.3.15-.44.18-.52-.31-.52-.54l.13-.16a2.49,2.49,0,0,1,.72,0l.07.07,0,.14h0c.34-.18.39.1.63.08A.78.78,0,0,1,52,25a.31.31,0,0,1,.25.2,2.87,2.87,0,0,0,.09.37,2.5,2.5,0,0,0,.57.14c.12.31,0,.22,0,.5a.18.18,0,0,0,.2-.08c.09,0,.1.09.16.16l.09,0,0-.06-.22-.35a.2.2,0,0,1,.05-.13l0,0a.78.78,0,0,0,.33.16l0-.06v-.05c-.25-.1-.31-.11-.38-.36v-.05c.07,0,.1,0,.13-.12.24.07.58.53.73.57s.18-.12.29-.11a.47.47,0,0,0,.34.33v0c.07-.21-.15-.42-.26-.51-.37.14-1.09-.3-.73-.72v-.07c-.49-.05-.49.22-.9-.2l-.22,0a.35.35,0,0,1-.17-.25l0-.07c.25-.05.3.18.6.05a.63.63,0,0,0,0-.31H53c-.09.09-.23.24-.39.16a2.35,2.35,0,0,1-.68-.62l0-.05.52-.22L52.6,23s.15.15.27.11l.32-.24c.11-.06.27,0,.4,0l.24-.14.46.1c.12,0,.22-.1.34,0l0,.07c-.09.09-.21.12-.2.3h0a1,1,0,0,1,.52-.43c.12,0,.25,0,.33,0s.19-.14.27-.24l0-.06-.17-.16a2.61,2.61,0,0,1,.39-.72c.1.05.12.11.25.1s.1-.16.18-.18h0l.11.21,0,0c0-.28-.09-.46.09-.69h0a6.51,6.51,0,0,1,1,.85l.14,0c.18.3.47.39.7.63.08,0,.12-.06.19,0a.91.91,0,0,0,.14.65.21.21,0,0,0,.18,0l0-.23.16-.14a.33.33,0,0,1,.25.12v.09c-.06.05-.17.19-.16.28a.22.22,0,0,0,.21.18c.15-.09,0-.13.08-.31h0a1.58,1.58,0,0,0,.28.3,1.68,1.68,0,0,1,.3.88c0,.08.06.15,0,.24a.76.76,0,0,1-.25.19L60,25c0,.22-.22.27-.17.51s.57.61.62,1c-.07,0-.1.08-.14.09s-.09-.18-.24-.17l-.24.09c-.2,0-.74-.42-.85-.54l-.11-.16c-.23-.17-.51-.15-.7-.33s-.18-.45-.33-.61l-.24.07a1,1,0,0,1-.25-.39c-.4,0-.3-.12-.62-.28l-.19,0-.24-.31c-.64-.29-.9.36-1.58,0-.15-.09-.29-.12-.37-.26.08-.08.19,0,.32-.16s0-.05,0-.09a.38.38,0,0,0-.21-.13l-.26.29c0,.11,0,.12.06.2-.18.2-.13.26-.1.55a.49.49,0,0,1,.19.16l0,.06a.69.69,0,0,0-.32.12c0,.06,0,.05,0,.08a4,4,0,0,0,.75-.16c.11.1.1.15.17.28a1.44,1.44,0,0,1,.44-.05l.12.17a3.1,3.1,0,0,1,.9.12,2.08,2.08,0,0,0,.13.3,2.89,2.89,0,0,1,1,.34l0,.06v0c-.11.06-.14.19-.28.2s-.13-.2-.27-.15l-.12.1,0,.08a1.85,1.85,0,0,1,.92.44l0,.11c-.27.53-.76-.05-1-.13-.11,0-.21,0-.36-.06l-.16.13c-.12,0-.12-.05-.19-.11v-.05a.68.68,0,0,0,.22-.38c.11,0,.23,0,.27-.14l-.28,0L56,25.67l-.51-.15c-.13-.08-.18-.33-.42-.26l-.22.14v.05a1.3,1.3,0,0,1,.41.43c.06.17-.07.26-.11.43.25.06.64.17.75.35-.09.12-.35.38-.56.24l-.21-.25h0a.52.52,0,0,1-.18.18c0,.15,0,.16.07.25s-.08.15-.1.21a.91.91,0,0,0,.23.73l.25-.09.19.3.6.07a.9.9,0,0,0,.41.14c.12,0,.22-.1.35,0,.32.22.4.76.75.91l0,0c.11-.25-.22-.43-.3-.6s0-.53-.11-.71-.23-.16-.32-.25-.13-.26-.21-.42-.28-.18-.3-.5l.08-.09h0c.18.11.22,0,.42.07.52.23.68.26.9.76Z" style="fill:#fff;fill-rule:evenodd"/><path d="M52,23.84a.58.58,0,0,1,.38.22.19.19,0,0,1,0,.08c-.08.14-.1.07-.24.09l-.22.13c-.13,0-.44-.22-.49-.31v0l.11-.09c.18,0,.29.09.42,0Z" style="fill:#fff;fill-rule:evenodd"/><path d="M53.75,24.17c-.14.13-.47.06-.56.25h0c.13.08.6-.07.69-.15Z" style="fill:#fff;fill-rule:evenodd"/><path d="M50.92,24.15h0a.3.3,0,0,1,.1.24v0l-.14.12c-.17,0-.27-.06-.31-.18Z" style="fill:#fff;fill-rule:evenodd"/><path d="M52.28,24.36a.9.9,0,0,1,.26.32l0,.05-.18.09,0,0,0-.12c-.13,0-.16,0-.26,0l-.05-.12.16-.21Z" style="fill:#fff;fill-rule:evenodd"/><path d="M51.37,24.46c.18.06.24.21.36.32l0,.08a2,2,0,0,1-.89.15c-.06-.11-.14-.15-.16-.3l.1-.1c.11,0,.15.1.24.16l.16-.06,0-.17Z" style="fill:#fff;fill-rule:evenodd"/><path d="M53.34,24.78a.18.18,0,0,1,.12.22c-.09.07-.2.23-.32.18a.56.56,0,0,1-.22-.28v0C53,24.8,53.25,24.83,53.34,24.78Z" style="fill:#fff;fill-rule:evenodd"/><path d="M50.46,24.43l.1.05v0c-.07.22-.19.26-.3.4l-.21,0,0-.09,0-.14A1.94,1.94,0,0,0,50.46,24.43Z" style="fill:#fff;fill-rule:evenodd"/><path d="M30,21.86a1.57,1.57,0,0,1,.63.21v.13c-.34.23-.46.06-.79-.11v.06c.05.14.13.27,0,.41h-.09l-.19-.25,0,0a.33.33,0,0,1-.42.12c-.09-.08-.14-.33-.19-.45l.11-.14C29.36,21.88,29.77,22.07,30,21.86Z" style="fill:#fff;fill-rule:evenodd"/><path d="M52.56,24.89a1,1,0,0,1,.5.35v.07l-.13.1-.34-.06-.16-.21C52.4,25,52.5,25,52.56,24.89Z" style="fill:#fff;fill-rule:evenodd"/><path d="M36.53,23.05c.25.09.2.36.36.54l.23-.06.14.22v.07l-.09.08c-.22,0-.3.09-.51,0a.76.76,0,0,0,0-.26c-.34,0-.55-.08-.68-.29V23.3l.21-.18Z" style="fill:#fff;fill-rule:evenodd"/><path d="M29.64,22.22s0,0,0,0Z" style="fill:#fff;fill-rule:evenodd"/><path d="M51,25.42v0h0Z" style="fill:#fff;fill-rule:evenodd"/><path d="M33.07,23.39l.17.21a.77.77,0,0,1,.4,0v.07a1,1,0,0,1-.56.17l-.19-.06a1.47,1.47,0,0,0-.87.45,2.67,2.67,0,0,1-.14.36h-.06a1,1,0,0,1-.27-.31c0-.08,0-.07.07-.11s.2-.06.29-.11l.3-.27A4.09,4.09,0,0,0,33.07,23.39Z" style="fill:#fff;fill-rule:evenodd"/><path d="M36.94,24c.23,0,.28.17.41.23l.33,0,.15.21,0,.06c-.14.26-.63.12-.86.44L37,25c.2,0,.31-.11.46-.14l.76.08.19.24a.47.47,0,0,0,.41-.2c.47.15.49.17.53.71l0,0a.33.33,0,0,0,.12,0c.12-.33.43-.11.63,0,.12-.15.21-.53.42-.56l0,.11c.09,0,.09,0,.14,0s.2.3.27.41.17-.1.33-.1c.07.23.33.36.5.49.21,0,.35-.15.62,0l.12.27.58-.15.11.22c.06,0,.09-.13.14-.17s.32-.08.45-.15l.18.16.08,0a.72.72,0,0,1,0-.25,1.2,1.2,0,0,1,1.33.75l.09,0c0-.12.13-.24.26-.25a1.09,1.09,0,0,1,.13.17l0,.17-.32.31c-.27-.05-.27-.29-.54-.28-.11.17-.25.2-.38.33.05.13.23.18.3.31v0l-.26.23-.38.14-.2.19c-.1,0-.16,0-.24,0l-.35.29c-.22-.2-.48-.07-.73,0a3.82,3.82,0,0,1-.12.59c.06,0,.06,0,.07.12-.15.15,0,.21-.07.41l-.18.2a3.58,3.58,0,0,1-.32.62l-.07,0a2.82,2.82,0,0,1-.13-1.2c.16-.4.63-.41.76-.95h-.06c-.09,0-.11.11-.19.07a.29.29,0,0,0-.24-.21l-.32.35c0,.11,0,.16,0,.26h0l-.32.05c-.09-.09-.14-.1-.17-.25-.15,0-.23.13-.35.15s-.4-.14-.63-.05a5.57,5.57,0,0,0-.9.86v.09l0,0,.09-.09,0,0,.06.11.15-.12.07,0a.55.55,0,0,0,.16.29h.06c0-.11,0-.14.12-.18l.1.08a9.64,9.64,0,0,1,.13,1l-.25.08a3.8,3.8,0,0,0,0,.43l-.13.14a.47.47,0,0,1-.12-.19c0-.37.25-.91.1-1.13l-.07,0c-.1.23-.09.61-.19.85a2.14,2.14,0,0,1-1.09,1.05l-.13-.13a1.91,1.91,0,0,0-.65.82c.19.57.13.72-.27,1.06h-.08l-.06-.12,0-.51-.17-.28,0-.29c-.11,0-.14.06-.27.06l0,0c0-.1,0-.16,0-.21s-.49.21-.54.37a2.25,2.25,0,0,0,.46.28l0,.09-.38.38c0,.28.22.48.24.77l-.14.24.11.11c-.07.27-.3.37-.39.57s0,.3-.09.43a3.13,3.13,0,0,1-1.13.72c-.15,0-.23,0-.33,0s0,.22,0,.36a.33.33,0,0,1-.33.13c0-.26.16-.37.06-.59h0a.53.53,0,0,0-.47.6c.08.48.64.76.3,1.37a.44.44,0,0,1-.44.31.44.44,0,0,1-.32.35v0c0-.12,0-.22,0-.32a1.17,1.17,0,0,1-.35-.56h-.11a.76.76,0,0,0-.3.71c.06.3.35.55.46.81l0,.54.18.34a.27.27,0,0,1-.14.14,1.39,1.39,0,0,1-.59-.88v-.5l-.21-.3a4.24,4.24,0,0,1,.16-.68,2.85,2.85,0,0,0-.06-1l0,0c-.11,0-.22.15-.32.09L32.37,37l.11-.48c0-.15-.47-.82-.74-.73l-.28.41-.28.07c0,.33-.2.3-.42.39-.09.31-.24.26-.36.45s-.12.61-.23.91c0,.09-.11.1-.14.22v0l.15,0c.07.32.2.7-.06.86l-.27-.2a1,1,0,0,1,.11-.45l-.06-.06,0,0c-.1,0-.05.1-.14.15h-.05a2.29,2.29,0,0,1-.3-1.06l.1-.33-.12-.34.13-1.27h0c-.15,0-.19.1-.33.11l-.07-.11c.07-.56-.1-.4-.23-.71,0-.08,0-.15,0-.21-.27-.14-.76,0-1.09-.14s-.14-.39-.28-.51-.17.08-.27.1c-.4.07-.36-.57-.38-.89-.43-.35-.34.44-.29.79.09,0,.24,0,.34.06l.28.19c.1,0,.13-.05.22,0l.05,0c0,.38.25.44.25.85a3.49,3.49,0,0,0-.36.42l-.19.42c-.18.22-.47.25-.71.39l-.38.36-.51.09c-.19.07-.5.44-.77.3s0-.73,0-1.05l-.12-.35.07-.2-.14-.38c-.07-.4.12-.85.07-1.29l-.09-.59h-.17l0,0a10.13,10.13,0,0,0,0,1.47l-.12.74.14.38c0,.18-.09.35,0,.51s.18.24.21.38l0,.54c.16,0,.11.17.2.27s.75-.17,1.06-.17l.05.07a1.67,1.67,0,0,1-.26.77.34.34,0,0,0-.23.09,4.3,4.3,0,0,1-.45,1.14l-.59.54c-.07.11-.05.19-.11.35l-.32.37-.07.36c0,.11-.13.12-.16.27s.11.33.14.5,0,.44.07.69l.21.29a9.81,9.81,0,0,1,0,1.33c-.09.24-.31.25-.41.45-.26.5.06,1.13.16,1.47a.68.68,0,0,1-.24.36,5,5,0,0,0,.11.92,2.17,2.17,0,0,1-.48,1.32c-.18.11-.32,0-.48.12a.58.58,0,0,1-.22.22c-.15,0-.15-.12-.24-.16s-.12,0-.2,0a4,4,0,0,0,0-.47c-.06-.19-.31-.23-.4-.39l0-.36a2.89,2.89,0,0,1-.77-1.11c-.05-.22,0-.54-.06-.73-.23-.49-.71-.76-.84-1.37a15.15,15.15,0,0,1,0-1.79c0-.4-.16-.8-.2-1.12l0-.27c-.05-.33-.47-.56-.5-.87l.05-.22a5.1,5.1,0,0,0,.14-1.43c-.15,0-.27.06-.37,0s-.1-.34-.16-.5c-.64-.16-.64.21-1.05.23l-.17-.16c-.21.08-.47.2-.67,0a4.75,4.75,0,0,0-.34-.76v-.35l-.15-.37c0-.2.11-.45,0-.62s-.14-.15-.19-.23l0,0c.09-.12.23-.13.33-.23v0l-.17-.26c.06-.17.18-.21.25-.36l.05-.31.24-.63v-.58a1.75,1.75,0,0,1,.35-.45l.74-1c.21-.26.6-.29.82-.54s.22-.57.42-.72.39-.09.48-.23l.15-.43H20a1,1,0,0,0,.37.27c.15,0,.63-.18.74-.21a2.11,2.11,0,0,1,1.11.24.49.49,0,0,1,0,.26c-.15.1-.39.37-.28.6a4.53,4.53,0,0,1,.84.52c.13,0,.27-.17.39-.11s.34.69.74.62c.1,0,.13-.15.24-.17.37.46.45.32.71-.13a1,1,0,0,0,.16-.27s0,0-.08-.07l-.1.11h0l-.13-.26a.29.29,0,0,1,.2-.11c0-.07,0-.05,0-.09s-.29,0-.36-.05-.21-.26-.29-.42c0-.34.21-.41.2-.75-.09,0-.11,0-.19.05s0,.21,0,.44-.31.32-.48.34c-.18-.21-.05-.25,0-.52-.15-.37.13-1.27-.13-1.65h-.23A5.68,5.68,0,0,0,23.6,30l-.08.06L23.39,30a1.67,1.67,0,0,1-.61.78h-.07l-.11-.15a.19.19,0,0,1,.06-.23c.15,0,.34-.05.41-.23a.87.87,0,0,0-.05-.64.6.6,0,0,1-.42-.24V29.2l.17-.15.21,0c0-.09.07-.12.06-.19v-.09c-.22,0-.21.06-.35.11s-.37-.09-.52,0l-.06.15-.32.21c-.15.06-.34,0-.44.15-.14.29-.37.65-.66.67l-.21-.06c-.09,0-.17.11-.29.12L20,29.79a2.17,2.17,0,0,1,.28-.69l.2-.18c.1-.18.12-.43.23-.6.46-.12.51.29,1,.23a1.17,1.17,0,0,1,.28-.37,1,1,0,0,0,0-.67l.13-.1.16.09c.18-.26.21-.3.46-.17a4.58,4.58,0,0,1,1.21-.75c.11,0,.17.11.31,0a1.15,1.15,0,0,1,.71-.76l.1.11a3.62,3.62,0,0,1-.2.44c-.12,0-.23,0-.27.12l0,0h.18s.07.16.1.18.38-.16.59,0a.14.14,0,0,0,.05.11,3.16,3.16,0,0,0,.76-.51c.1.05.08.1.2.13.32-.76.43-.17.88-.32l.4-.22v-.15h-.11c-.12.05-.18.18-.32.2-.09-.22-.32-.08-.49-.08l-.09-.18c.23-.71.75-.52,1.12-.87v-.07h0a2.82,2.82,0,0,0-1.48.74.89.89,0,0,1,0,.28c-.14.09-.31.12-.46.2s-.52.61-.92.43v-.05a1.19,1.19,0,0,0,.31-.76h0a.77.77,0,0,1-.54,0l-.05-.09,0-.05c.26-.06.35-.25.43-.55.28-.09.41-.23.71-.15a4.1,4.1,0,0,1,.73-.35c.14-.07.24-.29.37-.36l.26,0a4.45,4.45,0,0,1,.7-.29c.25,0,.52.16.73.08a.21.21,0,0,1,.24-.14,2.36,2.36,0,0,1,.5.3l0,.17a1.08,1.08,0,0,1,.52.41c.08.18-.06.3,0,.49l.08.16c.23,0,.2-.23.31-.4s.11-.06.15-.12h.06l.13.14v.06a.76.76,0,0,0-.22.18.16.16,0,0,0,.06.13l0,0a1.36,1.36,0,0,1,.74-.33c.28-.06.66.28.81.19s.06-.06.08-.15-.06-.13,0-.22h0a5,5,0,0,1,.61.61h.06c.06-.73.16-.7.55-1l.11,0a.34.34,0,0,1,.11.34l-.22.4c-.07.19,0,.36-.12.48s-.25.14-.35.27l.06.07c.45.15.5-1.05.85-1.29h0l0,.11,0,.18,0,.08H34c0-.29.16-.47.36-.24,0,.19.11.21.07.48h.07l.06-.08c0-.25-.15-.38-.07-.57a.29.29,0,0,1,.15-.12.93.93,0,0,0,.39.08.62.62,0,0,1,.3-.35,1.68,1.68,0,0,0,.74,0l.62.08A2.22,2.22,0,0,1,36.94,24Z" style="fill:#fff;fill-rule:evenodd"/><path d="M40.35,24.59a.9.9,0,0,1,.48.23l0,.07-.12.12c-.24,0-.54-.12-.48-.34Z" style="fill:#fff;fill-rule:evenodd"/><path d="M45,25.52l.11,0a.2.2,0,0,1,0,.13l-.19.15c-.13,0-.13-.09-.2-.16V25.6Z" style="fill:#fff;fill-rule:evenodd"/><path d="M23.32,23l.1,0c0,.11.09.15.17.21s.23-.1.48-.06l.11.18a.84.84,0,0,1-1.11.36c0-.12-.12-.16-.12-.31S23.19,23.07,23.32,23Z" style="fill:#fff;fill-rule:evenodd"/><path d="M47.34,26.35v0Z" style="fill:#fff;fill-rule:evenodd"/><path d="M31,24.52l.06,0,.08.11c0,.05,0,0,0,.05a.36.36,0,0,1-.27.12l0-.05v-.09Z" style="fill:#fff;fill-rule:evenodd"/><path d="M33.64,25.33l-.06.06,0,.07c0,.06,0,.11.13.15h0l.07-.14Z" style="fill:#fff;fill-rule:evenodd"/><path d="M29.07,24.85c-.1.16-.18.44-.07.54h0a.26.26,0,0,1,.14-.15c.15,0,.16.12.28.17a.44.44,0,0,0,.14-.22h0l-.22,0Z" style="fill:#fff;fill-rule:evenodd"/><path d="M23.56,25.1l.09,0,.08.19h-.09c0,.1.08.13,0,.23a.45.45,0,0,1-.28.18,1.32,1.32,0,0,1-.57,1.35L22.49,27c-.09,0-.1.11-.24.11a.21.21,0,0,1-.12-.15l.28-.21a.31.31,0,0,0-.09-.18c-.1-.06-.14,0-.24,0l-.18-.2v-.05c.18-.11.29-.3.46-.42l.43-.2H23A8.14,8.14,0,0,0,23.56,25.1Z" style="fill:#fff;fill-rule:evenodd"/><path d="M48.34,28.93c.09,0,.08.05.11.12l-.14.24c-.06,0-.08,0-.12,0V29.2Z" style="fill:#fff;fill-rule:evenodd"/><path d="M51.11,29.57l.1.14c0,.12,0,.13-.11.17l-.1-.16v0Z" style="fill:#fff;fill-rule:evenodd"/><path d="M40.07,31.39c.12.07.08.2.17.28l.29.07a.17.17,0,0,1,0,.12l-.39.28L40,32.05l-.08.11,0,0-.1-.15Z" style="fill:#fff;fill-rule:evenodd"/><path d="M22.52,29.46c.07,0,.08.06.11.12a.9.9,0,0,1-.32.49l-.07,0,0-.22A2.12,2.12,0,0,0,22.52,29.46Z" style="fill:#fff;fill-rule:evenodd"/><path d="M39.78,32.21a.14.14,0,0,1,.12.1l0,.06c.08.27-.07.44-.14.61-.15.4,0,.54-.35.68l-.14-.09-.48.38c-.15,0-.36,0-.5,0v0c0,.14,0,.23,0,.36h-.09c-.11-.12-.31-.38-.2-.59s.22-.25.36-.34l.45-.16.08.11h0a2.57,2.57,0,0,1,.23-.47.32.32,0,0,1,.2.1l.12-.06A7.71,7.71,0,0,1,39.78,32.21Z" style="fill:#fff;fill-rule:evenodd"/><path d="M60.59,35.44l.1,0a.47.47,0,0,1-.19.36l-.09-.12v-.13Z" style="fill:#fff;fill-rule:evenodd"/><path d="M23.72,31.1c.16.06.15.2.27.28s-.08.11-.15.15l-.18-.18v-.17Z" style="fill:#fff;fill-rule:evenodd"/><path d="M25.22,31.36l-.17.05,0,0,0,0,.26,0,0-.08v0l0-.05Z" style="fill:#fff;fill-rule:evenodd"/><path d="M60,36.07a2.88,2.88,0,0,1,1.25.67v0l-.15.15-.27,0a1.47,1.47,0,0,0-.85-.61l0,0a.21.21,0,0,1,0,.15l-.11,0-.11-.1v0C59.79,36.2,59.89,36.18,60,36.07Z" style="fill:#fff;fill-rule:evenodd"/><path d="M61.92,36.79l.09,0c0,.14.16.25.07.44s-.19.15-.28.2-.29-.36-.38-.56C61.55,36.78,61.74,36.85,61.92,36.79Z" style="fill:#fff;fill-rule:evenodd"/><path d="M36.73,35.45a.5.5,0,0,1,0,.38.55.55,0,0,1-.25.25h-.06l-.09-.17C36.37,35.52,36.53,35.59,36.73,35.45Z" style="fill:#fff;fill-rule:evenodd"/><path d="M63.69,39a.66.66,0,0,1,.08.26l-.2.12-.12-.12v0Z" style="fill:#fff;fill-rule:evenodd"/><path d="M36.47,36.82a.34.34,0,0,1,.22.08c0,.25-.28.53-.21.79l.23,0s.45.61.41.72-.35.26-.48.37v.12h0l.26-.19.06,0a.81.81,0,0,1,.1.46c-.08.13-.13.26-.26.33s-.1-.22-.16-.3-.2,0-.27-.18l.09-.25c0-.16-.22-.35-.09-.54v0l.36.13C36.62,37.86,35.55,37.44,36.47,36.82Z" style="fill:#fff;fill-rule:evenodd"/><path d="M35.54,39.23c.14.05.08.12.15.22s.26.23-.07.48c0,.25.11.35.15.53-.38.19-.29.87-.47,1s-.2-.12-.31-.18l-.5-.06a6.07,6.07,0,0,1-.31-.74c.25-.37.21-.17.52-.36l.26-.35C35.14,39.58,35.36,39.43,35.54,39.23Z" style="fill:#fff;fill-rule:evenodd"/><path d="M32.31,39.25c.18.06.26.24.43.34,0,.35.61.7.73,1v.2c0,.09.09.1.11.22l.14,0,.14.22a.79.79,0,0,0,0,.67c.28,0,.28.17.52.22l.26-.12c.09.06.05.11.11.2s.33.1.46.11v.08a.58.58,0,0,1-.64.13l-.15-.16L34,42.23c-.13-.07-.13-.23-.23-.32-.26-.24-.63-.41-.77-.75l-.14-.56-.16-.21,0-.2c0-.07-.09-.08-.13-.12A1,1,0,0,1,32.31,39.25Z" style="fill:#fff;fill-rule:evenodd"/><path d="M37.27,40.36l.1,0v.22l-.15.21-.09,0h0c.06-.15,0-.23.06-.37Z" style="fill:#fff;fill-rule:evenodd"/><path d="M36.7,40.37c.08,0,.08,0,.11.06l0,.11c-.22.15-.5.33-.76,0l0,0c0,.05,0,0,.07.07s-.08.13-.07.25l0,0c.23,0,.28-.14.5-.07a.13.13,0,0,1,0,.12l-.26.08,0,.07c0,.23.18.31.1.58l-.15.06a1.08,1.08,0,0,1-.07-.35h-.06c-.07.21,0,.32-.14.48l-.08,0c-.15-.6-.19-1.22.31-1.52l.38.14Z" style="fill:#fff;fill-rule:evenodd"/><path d="M37.74,40.78c.09,0,.09.07.14.1s.21-.12.36,0a1.51,1.51,0,0,0,0,.53l.14,0c.14-.07.21-.3.35-.4s.16.18.26.26l.24,0,.23.17.34,0c.21.13.37.76.49,1s.31.3.4.51l-.09.15h-.06c-.07-.19-.19-.14-.34-.26l-.43-.62h-.14c-.05.19-.14.4-.32.42a.32.32,0,0,0-.49-.17c-.13-.12,0-.16-.07-.37a2.2,2.2,0,0,0-.34-.55l-.21,0a1.2,1.2,0,0,1-.34-.23.39.39,0,0,0-.18-.45Z" style="fill:#fff;fill-rule:evenodd"/><path d="M41,41.51a.47.47,0,0,1,.25.27c-.07.34-.37.4-.6.51a.69.69,0,0,1-.31-.32l0-.11c.15.09.17,0,.33,0s0,.09.11.08l.09-.09c0-.2,0-.21.06-.34Z" style="fill:#fff;fill-rule:evenodd"/><path d="M36.85,42.32a.37.37,0,0,1,.22.18c0,.23-.55.43-.59.32S36.78,42.43,36.85,42.32Z" style="fill:#fff;fill-rule:evenodd"/><path d="M35.45,42.18a.51.51,0,0,1,.29.32v.07l-.14.1-.05,0-.11-.23Z" style="fill:#fff;fill-rule:evenodd"/><path d="M36.29,42.39a.44.44,0,0,1,.31.1v0c-.06.14-.63.26-.7.22l0-.13v-.05Z" style="fill:#fff;fill-rule:evenodd"/><path d="M39.42,43.06a6,6,0,0,1,.64,1.55c0,.12.16.15.22.25l.1.44c0,.07.12.08.17.14s.36.69.36.71l0,.34.09.16a5,5,0,0,1-.34,1.11c-.13.28-.14.56-.29.82a1.47,1.47,0,0,1-1.3.28c-.17-.12-.2-.41-.27-.6a.32.32,0,0,1-.18.06l-.09-.1c0-.17.06-.21.07-.36-.11,0-.15.1-.19.19h-.06c-.11-.22-.26-.59-.49-.7s-.42.1-.61.18l-.37.06c-.09,0-.15.13-.22.17-.34.21-.66.14-1,.43l0,0a.71.71,0,0,1-.26-.55l0-.18L35.18,47a2.07,2.07,0,0,1,0-.37L35,46.32,35,46l-.1-.19a.74.74,0,0,1,.15-.61c.2-.07.27-.2.44-.27l.11.12,0,0,.19-.23.2,0c.25-.27.16-.59.58-.63a.63.63,0,0,1,.35-.6l0,0,.21.3c.18,0,.22-.32.38-.46,0-.18-.06-.16-.09-.29l.15-.06.12.24h.07l0-.14h0c.29.08.37.21.68.27,0,.16-.24.29-.19.51l.08.16c.1,0,.16-.07.26,0v.12c.24,0,.25.15.37.28h0l0-.05A3.14,3.14,0,0,1,39.42,43.06Z" style="fill:#fff;fill-rule:evenodd"/><path d="M25.26,43a1.63,1.63,0,0,1,.27.87c0,.15-.11.15-.09.33a6.84,6.84,0,0,1,0,1.2c0,.38.16.82-.09,1l-.2,0a3.08,3.08,0,0,1-.54-1c0-.19.12-.29.09-.45s-.17-.36-.23-.59l.38-.32c0-.09,0-.22.06-.33l.22-.31C25.21,43.23,25.15,43.16,25.26,43Z" style="fill:#fff;fill-rule:evenodd"/><path d="M43.91,48.53a3.32,3.32,0,0,1,.44.86h0l.22-.16,0,0a1.8,1.8,0,0,1-.53.91l-.05,0c0-.17-.08-.35-.1-.48s.08-.14.1-.21a1,1,0,0,0,0-.5c0-.1-.17-.17-.21-.28Z" style="fill:#fff;fill-rule:evenodd"/><path d="M43.73,49.83a.59.59,0,0,1,.22.33c-.29.37-.47,1.07-1,1.05L42.81,51C42.88,50.6,43.5,50.13,43.73,49.83Z" style="fill:#fff;fill-rule:evenodd"/><path d="M57.89,55a.25.25,0,0,0,0,.15l.08,0,0-.12Z" style="fill:#fff;fill-rule:evenodd"/><circle cx="42.41" cy="43.2" r="27.86" style="fill:none"/><path d="M411.7,34.68a22.5,22.5,0,0,1,3.55-4.57L403.6,17.34A40,40,0,0,0,396.2,27Z" style="fill:#62b22f"/><path d="M440.26,25.66a22.45,22.45,0,0,1,4.89,3.06L456.83,16A40.11,40.11,0,0,0,446.48,9.5Z" style="fill:#d6a102"/><path d="M467,29.5l-15.49,7.72a22,22,0,0,1,1.55,5.47l17.23-1.62A39.51,39.51,0,0,0,467,29.5" style="fill:#c11728"/><path d="M450.42,35l15.49-7.72a39.86,39.86,0,0,0-7.24-9.6L447,30.41A22.58,22.58,0,0,1,450.42,35" style="fill:#289438"/><path d="M408.62,46q0-.52,0-1.05L391.42,43.4c-.06.86-.09,1.72-.09,2.59a39.83,39.83,0,0,0,1.17,9.58l16.64-4.77a22.43,22.43,0,0,1-.52-4.81" style="fill:#4a7634"/><path d="M448.25,60.15a22.47,22.47,0,0,1-4.2,3.95l9.1,14.73a40.24,40.24,0,0,0,8.91-8.27Z" style="fill:#fbb800"/><path d="M453.32,46a21.88,21.88,0,0,1-.51,4.75l16.64,4.78A39.42,39.42,0,0,0,470.61,46c0-.82,0-1.63-.07-2.44l-17.23,1.63c0,.27,0,.54,0,.81" style="fill:#e6331d"/><path d="M414,60.48,400.2,71a39.82,39.82,0,0,0,9,8.14l9.1-14.71a22.27,22.27,0,0,1-4.32-3.9" style="fill:#f59d08"/><path d="M408.9,42.46a22,22,0,0,1,1.65-5.55L395.07,29.2a39.59,39.59,0,0,0-3.42,11.71Z" style="fill:#0076b8"/><path d="M451,80.17,442,65.45a21.94,21.94,0,0,1-5.3,2.16l3.2,17A39.52,39.52,0,0,0,451,80.17" style="fill:#931831"/><path d="M452.15,53.15a22.29,22.29,0,0,1-2.42,5l13.82,10.42a39.8,39.8,0,0,0,5.23-10.62Z" style="fill:#00a7d7"/><path d="M434.2,68.11a23,23,0,0,1-3.23.23,22.28,22.28,0,0,1-2.6-.15l-3.21,17a39.75,39.75,0,0,0,12.24-.09Z" style="fill:#ec6411"/><path d="M432.4,23.68a21.94,21.94,0,0,1,5.53,1.07L444.15,8.6A39.49,39.49,0,0,0,432.4,6.37Z" style="fill:#e2061f"/><path d="M425.91,67.76a22.53,22.53,0,0,1-5.49-2.07l-9.1,14.72a39.41,39.41,0,0,0,11.39,4.35Z" style="fill:#dd0979"/><path d="M424.25,24.67a22,22,0,0,1,5.65-1V6.36A39.37,39.37,0,0,0,418,8.53Z" style="fill:#1f3262"/><path d="M412.45,58.49a22.34,22.34,0,0,1-2.63-5.29L393.19,58a39.51,39.51,0,0,0,5.49,11Z" style="fill:#d28d0e"/><path d="M417.12,28.45a22.64,22.64,0,0,1,4.8-2.9L415.66,9.42a39.89,39.89,0,0,0-10.2,6.25Z" style="fill:#004c84"/><line x1="165.45" y1="85.86" x2="165.45" y2="4.85" style="fill:none;stroke:#3c3c3b;stroke-linecap:round;stroke-miterlimit:10;stroke-width:0.467112917089575px"/><line x1="376.87" y1="85.63" x2="376.87" y2="6.36" style="fill:none;stroke:#3c3c3b;stroke-linecap:round;stroke-miterlimit:10;stroke-width:0.467112917089575px"/><path d="M324.82,31.48a1,1,0,0,0,1.05.71A1.07,1.07,0,0,0,327,31.07,1,1,0,0,0,325.88,30a1.08,1.08,0,0,0-1,.54H323.5l.26-4h4.34v1.27H325l-.13,1.54H325a1.59,1.59,0,0,1,1.35-.58A2.08,2.08,0,0,1,328.5,31a2.39,2.39,0,0,1-2.64,2.42c-1.51,0-2.47-.86-2.5-1.95Z" style="fill:#3c3c3b"/><path d="M329.35,30.43V29.29h4.14v1.14Z" style="fill:#3c3c3b"/><path d="M338.64,26.58v1.3l-2.71,5.42h-1.7l2.8-5.37v-.07h-3.24V26.58Z" style="fill:#3c3c3b"/><path d="M321,41V34.28h1.67l1.73,3.84h.06l1.73-3.84h1.66V41h-1.46V36.82h-.08L324.89,40h-1l-1.42-3.18h-.08V41Z" style="fill:#3c3c3b"/><path d="M328.65,41l2.17-6.73h2L335,41h-1.72l-.44-1.55H330.7L330.27,41Zm3.07-5.28L331,38.29h1.49l-.71-2.56Z" style="fill:#3c3c3b"/><path d="M336.73,41V38.66l-2.26-4.38h1.78l1.28,2.78h.06l1.3-2.78h1.71l-2.25,4.34V41Z" style="fill:#3c3c3b"/><path d="M318.76,44.29V44.2a2.18,2.18,0,0,1,2.42-2.13c1.47,0,2.42.82,2.42,1.91a3.12,3.12,0,0,1-1.2,2.14L321,47.56v.07h2.67v1.29h-4.85v-1l2.41-2.5a2,2,0,0,0,.74-1.28.83.83,0,0,0-.86-.81.83.83,0,0,0-.86.86v.1Z" style="fill:#3c3c3b"/><path d="M324.63,45.38c0-2,1-3.31,2.68-3.31S330,43.35,330,45.38v.33c0,2-1,3.33-2.68,3.33s-2.65-1.3-2.65-3.33Zm1.62.33c0,1.28.39,2,1,2s1-.76,1-2v-.32c0-1.28-.39-2-1-2s-1,.75-1,2Z" style="fill:#3c3c3b"/><path d="M330.86,44.29V44.2a2.17,2.17,0,0,1,2.41-2.13c1.48,0,2.43.82,2.43,1.91a3.12,3.12,0,0,1-1.2,2.14l-1.36,1.44v.07h2.66v1.29H331v-1l2.42-2.5a2,2,0,0,0,.74-1.28.87.87,0,0,0-1.73,0v.1Z" style="fill:#3c3c3b"/><path d="M336.73,45.38c0-2,1-3.31,2.68-3.31s2.65,1.28,2.65,3.31v.33c0,2-1,3.33-2.69,3.33s-2.64-1.3-2.64-3.33Zm1.62.33c0,1.28.39,2,1,2s1-.76,1-2v-.32c0-1.28-.38-2-1-2s-1,.75-1,2Z" style="fill:#3c3c3b"/><path d="M204.74,8.92h1.45v4.61a2.22,2.22,0,0,1-.75,1.85,2.94,2.94,0,0,1-1.92.64,2.91,2.91,0,0,1-1.93-.63,2.26,2.26,0,0,1-.76-1.84V8.93h1.44l0,4.61a1.35,1.35,0,0,0,.33,1,1.47,1.47,0,0,0,1.82,0,1.36,1.36,0,0,0,.32-1Z" style="fill:#1d1d1b"/><path d="M209.36,11.72a1,1,0,0,0-.88.51V15.9h-1.38l0-5.2h1.3l.05.6a1.8,1.8,0,0,1,1.49-.7,1.63,1.63,0,0,1,1.2.44,2.1,2.1,0,0,1,.45,1.54v3.31H210.2V12.58a.83.83,0,0,0-.22-.68A.91.91,0,0,0,209.36,11.72Z" style="fill:#1d1d1b"/><path d="M212.24,9.34a.68.68,0,0,1,.21-.51.77.77,0,0,1,.57-.21.81.81,0,0,1,.57.2.74.74,0,0,1,0,1,.76.76,0,0,1-.56.21.77.77,0,0,1-.57-.21A.67.67,0,0,1,212.24,9.34Zm1.49,1.34,0,5.2h-1.4V10.69Z" style="fill:#1d1d1b"/><path d="M217.36,15.83l-.38.1-.46,0a1.57,1.57,0,0,1-1.08-.36,1.48,1.48,0,0,1-.41-1.18V11.69h-.76v-1H215V9.4h1.39v1.28h.88v1h-.88v2.59a.55.55,0,0,0,.13.44.66.66,0,0,0,.4.1h.23l.17,0Z" style="fill:#1d1d1b"/><path d="M222.37,15a2.29,2.29,0,0,1-.76.66,2.53,2.53,0,0,1-1.26.29,2.42,2.42,0,0,1-1.9-.73,2.5,2.5,0,0,1-.69-1.78v-.18a2.85,2.85,0,0,1,.65-1.94,2.21,2.21,0,0,1,1.77-.75,2.08,2.08,0,0,1,1.7.69,2.8,2.8,0,0,1,.6,1.85v.59h-3.31a1.36,1.36,0,0,0,.4.82,1.23,1.23,0,0,0,.86.3,1.49,1.49,0,0,0,1.25-.58Zm-2.2-3.32a.85.85,0,0,0-.68.3,1.62,1.62,0,0,0-.31.78h1.93v-.11a1.11,1.11,0,0,0-.24-.69A.85.85,0,0,0,220.17,11.68Z" style="fill:#1d1d1b"/><path d="M226.35,15.84l-.07-.56a1.69,1.69,0,0,1-.56.48,1.58,1.58,0,0,1-.76.18,1.75,1.75,0,0,1-1.51-.75,3.17,3.17,0,0,1-.53-1.88v-.1a3.23,3.23,0,0,1,.53-1.92,1.77,1.77,0,0,1,1.51-.74,1.61,1.61,0,0,1,1.25.56V8.46h1.39l0,7.37Zm-2-2.53a2.28,2.28,0,0,0,.22,1.06.8.8,0,0,0,.77.44.94.94,0,0,0,.91-.54V12.21a.93.93,0,0,0-.9-.54.79.79,0,0,0-.77.45,2.41,2.41,0,0,0-.22,1.09Z" style="fill:#1d1d1b"/><path d="M236.21,8.81l0,7h-1.44L232,11.21l0,4.61h-1.45l0-7H232l2.82,4.6,0-4.61Z" style="fill:#1d1d1b"/><path d="M240.29,15.79a1.91,1.91,0,0,1-.15-.46,2,2,0,0,1-.52.4,1.71,1.71,0,0,1-.79.16,1.86,1.86,0,0,1-1.25-.43,1.41,1.41,0,0,1-.51-1.12,1.52,1.52,0,0,1,.6-1.27,3,3,0,0,1,1.79-.45h.62v-.3a.88.88,0,0,0-.19-.58.73.73,0,0,0-.58-.21q-.75,0-.75.63h-1.38a1.41,1.41,0,0,1,.59-1.16,2.52,2.52,0,0,1,1.61-.5,2.34,2.34,0,0,1,1.49.46,1.59,1.59,0,0,1,.6,1.36v2.2a4.57,4.57,0,0,0,.05.72,2,2,0,0,0,.16.47v.08Zm-1.16-1a1,1,0,0,0,.6-.16,1,1,0,0,0,.35-.34v-.91h-.57a1.19,1.19,0,0,0-.8.23.77.77,0,0,0-.26.58.55.55,0,0,0,.19.42A.65.65,0,0,0,239.13,14.83Z" style="fill:#1d1d1b"/><path d="M245,15.74a3.29,3.29,0,0,1-.37.1l-.46,0a1.58,1.58,0,0,1-1.09-.36,1.48,1.48,0,0,1-.41-1.18V11.6h-.76v-1h.76V9.31h1.38v1.28H245v1h-.89v2.59a.55.55,0,0,0,.14.44.64.64,0,0,0,.4.1h.22l.18,0Z" style="fill:#1d1d1b"/><path d="M245.58,9.24a.69.69,0,0,1,.21-.52.77.77,0,0,1,.57-.21.81.81,0,0,1,.57.2.7.7,0,0,1,.21.52.66.66,0,0,1-.21.51.77.77,0,0,1-.57.21.76.76,0,0,1-.56-.21A.67.67,0,0,1,245.58,9.24Zm1.49,1.33v5.2h-1.39l0-5.2Z" style="fill:#1d1d1b"/><path d="M247.87,13.22v-.1a2.81,2.81,0,0,1,.64-1.89,2.25,2.25,0,0,1,1.81-.76,2.28,2.28,0,0,1,1.83.75,2.79,2.79,0,0,1,.64,1.89v.1a2.82,2.82,0,0,1-.63,1.89,2.57,2.57,0,0,1-3.64,0A2.8,2.8,0,0,1,247.87,13.22Zm1.39-.1v.1a2.27,2.27,0,0,0,.25,1.08.87.87,0,0,0,.83.44.86.86,0,0,0,.83-.45,2.15,2.15,0,0,0,.23-1.08v-.1a2.25,2.25,0,0,0-.24-1.07,1,1,0,0,0-1.66,0A2.29,2.29,0,0,0,249.26,13.12Z" style="fill:#1d1d1b"/><path d="M255.76,11.57a.94.94,0,0,0-.88.51v3.66H253.5v-5.2h1.3l.05.59a1.8,1.8,0,0,1,1.49-.69,1.61,1.61,0,0,1,1.19.44,2.1,2.1,0,0,1,.46,1.54v3.31H256.6V12.43a.9.9,0,0,0-.22-.68A.92.92,0,0,0,255.76,11.57Z" style="fill:#1d1d1b"/><path d="M261.72,14.28a.44.44,0,0,0-.21-.37,2.41,2.41,0,0,0-.86-.29,3.61,3.61,0,0,1-1.32-.53,1.19,1.19,0,0,1-.53-1,1.45,1.45,0,0,1,.55-1.13,2.26,2.26,0,0,1,1.51-.49,2.5,2.5,0,0,1,1.6.47,1.53,1.53,0,0,1,.59,1.2h-1.39a.69.69,0,0,0-.2-.5.79.79,0,0,0-.6-.19.81.81,0,0,0-.54.16.5.5,0,0,0-.19.4.43.43,0,0,0,.22.37,2.07,2.07,0,0,0,.75.25,4.24,4.24,0,0,1,1.41.51,1.21,1.21,0,0,1,.56,1.11,1.39,1.39,0,0,1-.59,1.14,2.49,2.49,0,0,1-1.59.46,2.3,2.3,0,0,1-1.67-.55,1.63,1.63,0,0,1-.58-1.19H260a.68.68,0,0,0,.3.59,1.19,1.19,0,0,0,.65.17C261.45,14.83,261.72,14.65,261.72,14.28Z" style="fill:#1d1d1b"/><line x1="215.99" y1="20.03" x2="247.76" y2="20.03" style="fill:none;stroke:#3c3c3b;stroke-linecap:round;stroke-miterlimit:10;stroke-width:0.5px"/><line x1="215.99" y1="21.25" x2="247.76" y2="21.25" style="fill:none;stroke:#3c3c3b;stroke-linecap:round;stroke-miterlimit:10;stroke-width:0.5px"/><path d="M217.38,37.91a3.08,3.08,0,0,0,.68,2.26,2.34,2.34,0,0,0,1.7.66,3.62,3.62,0,0,0,.79-.07,3.29,3.29,0,0,0,.57-.16l0-1.83-.27.06a2.43,2.43,0,0,1-.38,0,.84.84,0,0,1-.6-.21,1.27,1.27,0,0,1-.22-.9V32.07h1.44V30.32h-1.44V27.8h-2.29v2.52H216v1.75h1.37ZM265.92,26h-2.29V40.64h2.29Zm-64,14.84a2.77,2.77,0,0,0,2.33-1.09l0,.9h2.16V30.32h-2.29v7.53a1.69,1.69,0,0,1-1.66,1,1,1,0,0,1-.8-.39,2.29,2.29,0,0,1-.35-1.49V30.32H199V37a4.41,4.41,0,0,0,.79,3A2.63,2.63,0,0,0,201.9,40.83Zm36.28-7.71a1.63,1.63,0,0,1,1.46-1.06,1.24,1.24,0,0,1,1,.42A2.47,2.47,0,0,1,241,34v6.68h2.28V34a4.57,4.57,0,0,0-.75-3,2.54,2.54,0,0,0-2-.87,3,3,0,0,0-2.42,1.2l-.06-1h-2.16V40.64h2.29ZM211.68,51.3H214a1.46,1.46,0,0,1,.32-1,1.22,1.22,0,0,1,1-.38c.8,0,1.21.48,1.21,1.45v.92h-.87a4.37,4.37,0,0,0-3.09,1,3.26,3.26,0,0,0-1,2.49,2.91,2.91,0,0,0,.85,2.24,3,3,0,0,0,2.15.81,2.2,2.2,0,0,0,1.22-.33,2.7,2.7,0,0,0,.83-.78,5.21,5.21,0,0,0,.24.92h2.33v-.16a5.83,5.83,0,0,1-.35-2.25V51.44a3.08,3.08,0,0,0-1-2.55,3.87,3.87,0,0,0-2.47-.76,3.64,3.64,0,0,0-2.67,1A3,3,0,0,0,211.68,51.3Zm4.79,4.82a1.77,1.77,0,0,1-.59.56,1.65,1.65,0,0,1-.92.25c-.78,0-1.17-.45-1.17-1.36a1.63,1.63,0,0,1,.53-1.28,2.06,2.06,0,0,1,1.47-.49h.68Zm-4.75-17.06a1.81,1.81,0,0,1-1.06-.32,1.53,1.53,0,0,1-.5-1.27H208a3.34,3.34,0,0,0,1,2.32,3.61,3.61,0,0,0,2.79,1,4,4,0,0,0,2.63-.83,2.75,2.75,0,0,0,1-2.2,2.52,2.52,0,0,0-.77-2,7.52,7.52,0,0,0-2.35-1.3,6.32,6.32,0,0,1-1.36-.71.9.9,0,0,1-.36-.76,1.19,1.19,0,0,1,.3-.83,1.34,1.34,0,0,1,1.87.08,1.6,1.6,0,0,1,.31,1h2.29a3,3,0,0,0-1-2.29,3.63,3.63,0,0,0-2.61-.9,3.49,3.49,0,0,0-2.52.88,2.88,2.88,0,0,0-.93,2.16,2.38,2.38,0,0,0,.79,1.92,8,8,0,0,0,2.2,1.24,6.8,6.8,0,0,1,1.42.77,1,1,0,0,1,.43.82Q213.07,39.06,211.72,39.06Zm-18.4,1.77a4.42,4.42,0,0,0,3.08-1A3.61,3.61,0,0,0,197.52,37a3.92,3.92,0,0,0-.92-2.69,6.75,6.75,0,0,0-2.92-1.71,6.24,6.24,0,0,1-1.67-.94,1.64,1.64,0,0,1-.59-1.28,2.08,2.08,0,0,1,.44-1.34,2,2,0,0,1,2.84.11,2.78,2.78,0,0,1,.45,1.63h2.39a4.32,4.32,0,0,0-1.13-3,4.06,4.06,0,0,0-3.16-1.24,4.29,4.29,0,0,0-3.05,1.08A3.62,3.62,0,0,0,189,30.41a3.38,3.38,0,0,0,1.11,2.68,8.91,8.91,0,0,0,2.73,1.58,4.61,4.61,0,0,1,1.84,1,2,2,0,0,1,.41,1.32,2,2,0,0,1-.43,1.32,1.72,1.72,0,0,1-1.38.51,2.31,2.31,0,0,1-1.64-.57,2.51,2.51,0,0,1-.61-1.89h-2.39a4.09,4.09,0,0,0,2.42,3.93A5.2,5.2,0,0,0,193.32,40.83Zm55.73-6.5a4.37,4.37,0,0,0-3.09,1,3.26,3.26,0,0,0-1,2.49A2.91,2.91,0,0,0,245.8,40a3,3,0,0,0,2.15.81,2.2,2.2,0,0,0,1.22-.33,2.7,2.7,0,0,0,.83-.78,5.21,5.21,0,0,0,.24.92h2.33v-.16a5.81,5.81,0,0,1-.36-2.25V33.44a3.07,3.07,0,0,0-1-2.55,3.87,3.87,0,0,0-2.47-.76,3.64,3.64,0,0,0-2.67,1,3,3,0,0,0-1,2.2h2.29a1.46,1.46,0,0,1,.32-1,1.21,1.21,0,0,1,1-.38c.81,0,1.22.48,1.22,1.45v.92Zm.87,3.79a1.77,1.77,0,0,1-.59.56,1.65,1.65,0,0,1-.92.25c-.78,0-1.17-.45-1.17-1.36a1.63,1.63,0,0,1,.53-1.28,2.06,2.06,0,0,1,1.47-.49h.68Zm-17.16-9.23a1.21,1.21,0,0,0,.93-.36,1.27,1.27,0,0,0,.33-.89,1.31,1.31,0,0,0-.33-.91,1.21,1.21,0,0,0-.93-.36,1.2,1.2,0,0,0-.93.36,1.31,1.31,0,0,0-.33.91,1.27,1.27,0,0,0,.33.89A1.2,1.2,0,0,0,232.76,28.89ZM243,48.13a2.55,2.55,0,0,0-2.24,1.19l-.1-1h-2.09V62.61h2.28V57.76A2.61,2.61,0,0,0,243,58.83q3.36,0,3.36-4.95v-.81a6.51,6.51,0,0,0-.86-3.74A2.9,2.9,0,0,0,243,48.13Zm1.09,5.75a5,5,0,0,1-.41,2.3,1.43,1.43,0,0,1-1.37.74,1.53,1.53,0,0,1-.89-.24,1.71,1.71,0,0,1-.57-.65V51a1.57,1.57,0,0,1,1.45-.91,1.45,1.45,0,0,1,1.37.72,4.72,4.72,0,0,1,.42,2.29ZM231.61,40.64h2.3V30.32h-2.3Zm-3.56,18V52a4.51,4.51,0,0,0-.76-3,2.53,2.53,0,0,0-2-.87,3,3,0,0,0-2.42,1.2l-.06-1h-2.15V58.64H223V51.12a1.62,1.62,0,0,1,1.46-1.06,1.22,1.22,0,0,1,1,.42,2.4,2.4,0,0,1,.34,1.48v6.68Zm-1.66-24.31a4.37,4.37,0,0,0-3.09,1,3.26,3.26,0,0,0-1,2.49,2.91,2.91,0,0,0,.85,2.24,3,3,0,0,0,2.15.81,2.2,2.2,0,0,0,1.22-.33,2.7,2.7,0,0,0,.83-.78,5.21,5.21,0,0,0,.24.92h2.33v-.16a5.83,5.83,0,0,1-.35-2.25V33.44a3.08,3.08,0,0,0-1-2.55,3.87,3.87,0,0,0-2.47-.76,3.64,3.64,0,0,0-2.67,1,3,3,0,0,0-1,2.2h2.29a1.46,1.46,0,0,1,.32-1,1.22,1.22,0,0,1,1-.38c.8,0,1.21.48,1.21,1.45v.92Zm.87,3.79a1.77,1.77,0,0,1-.59.56,1.65,1.65,0,0,1-.92.25c-.78,0-1.17-.45-1.17-1.36a1.63,1.63,0,0,1,.53-1.28,2.06,2.06,0,0,1,1.47-.49h.68Zm26.36,28a3,3,0,0,0-2.42,1.2l-.06-1H249V76.64h2.29V69.12a1.63,1.63,0,0,1,1.46-1.06,1.24,1.24,0,0,1,1,.42,2.48,2.48,0,0,1,.33,1.48v6.68h2.29V70a4.57,4.57,0,0,0-.75-3A2.54,2.54,0,0,0,253.62,66.13Zm6.92,2.7a1.34,1.34,0,0,1,1.4-.8c.94,0,1.43.67,1.48,2h2.15a4.11,4.11,0,0,0-1-2.89,3.43,3.43,0,0,0-2.6-1,3.63,3.63,0,0,0-3.05,1.28,5.79,5.79,0,0,0-1,3.6V72a5.78,5.78,0,0,0,1,3.59A3.59,3.59,0,0,0,262,76.83a3.52,3.52,0,0,0,3.6-3.63h-2.15a1.86,1.86,0,0,1-.43,1.32,1.41,1.41,0,0,1-1,.4,1.35,1.35,0,0,1-1.41-.78,6.06,6.06,0,0,1-.31-2.19V71A6,6,0,0,1,260.54,68.83Zm-.89-17.31a1.59,1.59,0,0,1,1.59-1.1,4.61,4.61,0,0,1,.84.07V48.25a1.68,1.68,0,0,0-.71-.12,2,2,0,0,0-1.79,1.21l-.06-1h-2.18V58.64h2.3ZM262,35.89v-.81q0-4.95-3.37-4.95a2.52,2.52,0,0,0-2.16,1.11V26h-2.29V40.64h2.11l.09-1.09a2.55,2.55,0,0,0,2.27,1.28C260.85,40.83,262,39.18,262,35.89ZM257,38.61a2,2,0,0,1-.58-.74V33.09a1.61,1.61,0,0,1,1.52-1,1.37,1.37,0,0,1,1.38.75,5.62,5.62,0,0,1,.35,2.27v.81a5.38,5.38,0,0,1-.36,2.29,1.36,1.36,0,0,1-1.35.71A1.54,1.54,0,0,1,257,38.61Zm-2.38,19a5.27,5.27,0,0,0,1.15-3.68v-.81a5.28,5.28,0,0,0-1.15-3.69,3.85,3.85,0,0,0-3-1.26,3.81,3.81,0,0,0-2.94,1.26,5.28,5.28,0,0,0-1.16,3.69v.81a5.27,5.27,0,0,0,1.16,3.68,4.11,4.11,0,0,0,5.92,0Zm-4.28-1.38a4.1,4.1,0,0,1-.51-2.3v-.81a4.11,4.11,0,0,1,.51-2.29,1.53,1.53,0,0,1,1.3-.76,1.58,1.58,0,0,1,1.33.76,4.11,4.11,0,0,1,.51,2.29v.81c0,2-.6,3-1.82,3A1.54,1.54,0,0,1,250.35,56.19Zm20.35,9.94a3.77,3.77,0,0,0-2.86,1.2,5.39,5.39,0,0,0-1.14,3.81v1a5,5,0,0,0,1.11,3.49,4.1,4.1,0,0,0,3.12,1.19,4.28,4.28,0,0,0,2.19-.5,4.08,4.08,0,0,0,1.27-1.07l-1-1.39a3.24,3.24,0,0,1-1,.76,2.75,2.75,0,0,1-1.33.29,1.91,1.91,0,0,1-1.54-.61,3.3,3.3,0,0,1-.54-2.09h5.5V71.11a6.22,6.22,0,0,0-.92-3.7A3.28,3.28,0,0,0,270.7,66.13Zm1.53,4.38H269a3.55,3.55,0,0,1,.48-1.94,1.42,1.42,0,0,1,1.19-.54,1.21,1.21,0,0,1,1.19.61,3.91,3.91,0,0,1,.35,1.63Zm-79.34-5a2,2,0,0,1,1.86-1,1.92,1.92,0,0,1,1.64.64,4.07,4.07,0,0,1,.56,2.18h2.38a5.53,5.53,0,0,0-1.26-3.55,4.28,4.28,0,0,0-3.32-1.25,4.35,4.35,0,0,0-3.54,1.56,6.75,6.75,0,0,0-1.28,4.37v2.42a6.84,6.84,0,0,0,1.25,4.36,4.21,4.21,0,0,0,3.47,1.56,4.46,4.46,0,0,0,3.4-1.24,5.22,5.22,0,0,0,1.27-3.49h-2.38a4,4,0,0,1-.58,2.14,2.11,2.11,0,0,1-1.71.6,1.86,1.86,0,0,1-1.84-1,6.81,6.81,0,0,1-.5-2.9V68.47A5.89,5.89,0,0,1,192.89,65.52Zm82.59-30.41a6.3,6.3,0,0,0-.91-3.7,3.3,3.3,0,0,0-2.89-1.28,3.77,3.77,0,0,0-2.86,1.2,5.39,5.39,0,0,0-1.14,3.81v1a4.91,4.91,0,0,0,1.12,3.49,4.07,4.07,0,0,0,3.12,1.19,4.33,4.33,0,0,0,2.19-.5,4,4,0,0,0,1.26-1.07l-1-1.39a3.2,3.2,0,0,1-1,.76,2.79,2.79,0,0,1-1.34.29,1.92,1.92,0,0,1-1.54-.61,3.36,3.36,0,0,1-.54-2.09h5.5Zm-2.27-.6H270a3.54,3.54,0,0,1,.49-1.94,1.4,1.4,0,0,1,1.18-.54,1.21,1.21,0,0,1,1.19.61,3.76,3.76,0,0,1,.35,1.63ZM243.77,66.13a3.77,3.77,0,0,0-2.85,1.2,5.39,5.39,0,0,0-1.14,3.81v1a5,5,0,0,0,1.11,3.49A4.1,4.1,0,0,0,244,76.83a4.28,4.28,0,0,0,2.19-.5,4,4,0,0,0,1.26-1.07l-1-1.39a3.08,3.08,0,0,1-1,.76,2.76,2.76,0,0,1-1.34.29,1.9,1.9,0,0,1-1.53-.61,3.3,3.3,0,0,1-.54-2.09h5.5V71.11a6.29,6.29,0,0,0-.92-3.7A3.29,3.29,0,0,0,243.77,66.13Zm1.54,4.38h-3.22a3.63,3.63,0,0,1,.49-1.94,1.4,1.4,0,0,1,1.18-.54,1.22,1.22,0,0,1,1.2.61,3.91,3.91,0,0,1,.35,1.63ZM268,58.6V56.77l-.27.06a2.31,2.31,0,0,1-.37,0,.81.81,0,0,1-.6-.21,1.27,1.27,0,0,1-.22-.9V50.07H268V48.32h-1.44V45.8h-2.29v2.52h-1.38v1.75h1.38v5.84a3.08,3.08,0,0,0,.67,2.26,2.35,2.35,0,0,0,1.7.66,3.56,3.56,0,0,0,.79-.07A3.7,3.7,0,0,0,268,58.6Zm-63.39,7.53a3.81,3.81,0,0,0-2.94,1.26,5.24,5.24,0,0,0-1.16,3.69v.81a5.23,5.23,0,0,0,1.16,3.68,4.1,4.1,0,0,0,5.91,0,5.27,5.27,0,0,0,1.16-3.68v-.81a5.28,5.28,0,0,0-1.16-3.69A3.83,3.83,0,0,0,204.59,66.13Zm1.84,5.76c0,2-.61,3-1.82,3a1.54,1.54,0,0,1-1.32-.73,4.1,4.1,0,0,1-.51-2.3v-.81a4.11,4.11,0,0,1,.51-2.29,1.53,1.53,0,0,1,1.3-.76,1.55,1.55,0,0,1,1.32.76,4,4,0,0,1,.52,2.29Zm4.38-23.64a1.68,1.68,0,0,0-.71-.12,2,2,0,0,0-1.79,1.21l-.06-1h-2.18V58.64h2.3V51.52a1.59,1.59,0,0,1,1.59-1.1,4.61,4.61,0,0,1,.84.07Zm-8.93,10.39V46.74h3.51v-2H196v2h3.47v11.9Zm13,7.49a3,3,0,0,0-2.42,1.2l-.06-1h-2.15V76.64h2.29V69.12A1.62,1.62,0,0,1,214,68.06a1.22,1.22,0,0,1,1,.42,2.4,2.4,0,0,1,.34,1.48v6.68h2.29V70a4.51,4.51,0,0,0-.76-3A2.53,2.53,0,0,0,214.89,66.13Zm14.16,0a3.79,3.79,0,0,0-2.86,1.2,5.39,5.39,0,0,0-1.14,3.81v1a5,5,0,0,0,1.12,3.49,4.07,4.07,0,0,0,3.12,1.19,4.28,4.28,0,0,0,2.19-.5,4,4,0,0,0,1.26-1.07l-1-1.39a3.08,3.08,0,0,1-1,.76,2.79,2.79,0,0,1-1.34.29,1.9,1.9,0,0,1-1.53-.61,3.36,3.36,0,0,1-.55-2.09h5.51V71.11a6.29,6.29,0,0,0-.92-3.7A3.29,3.29,0,0,0,229.05,66.13Zm1.54,4.38h-3.22a3.63,3.63,0,0,1,.49-1.94A1.4,1.4,0,0,1,229,68a1.2,1.2,0,0,1,1.19.61,3.9,3.9,0,0,1,.36,1.63Zm6.34-14.71a2.52,2.52,0,0,0-.77-2,7.52,7.52,0,0,0-2.35-1.3,6.32,6.32,0,0,1-1.36-.71.9.9,0,0,1-.36-.76,1.19,1.19,0,0,1,.3-.83,1.15,1.15,0,0,1,.91-.34,1.12,1.12,0,0,1,.95.42,1.55,1.55,0,0,1,.32,1h2.29a3,3,0,0,0-1-2.29,3.63,3.63,0,0,0-2.61-.9,3.47,3.47,0,0,0-2.52.88,2.88,2.88,0,0,0-.93,2.16,2.38,2.38,0,0,0,.79,1.92,8,8,0,0,0,2.2,1.24,6.8,6.8,0,0,1,1.42.77,1,1,0,0,1,.43.82q0,1.14-1.35,1.14a1.81,1.81,0,0,1-1.06-.32,1.53,1.53,0,0,1-.5-1.27h-2.21a3.34,3.34,0,0,0,1,2.32,3.59,3.59,0,0,0,2.79,1A4,4,0,0,0,236,58,2.75,2.75,0,0,0,236.93,55.8Zm-.4,11.54-.06-1h-2.18V76.64h2.3V69.52a1.59,1.59,0,0,1,1.59-1.1,4.61,4.61,0,0,1,.84.07V66.25a1.68,1.68,0,0,0-.71-.12A2,2,0,0,0,236.53,67.34ZM221.07,62.7a3.68,3.68,0,0,0-.86,2.64v1h-1.28v1.75h1.28v8.57h2.3V68.07h1.65V66.32h-1.65v-1c0-1.07.42-1.61,1.28-1.61a2.41,2.41,0,0,1,.71.09l.05-1.86a3.83,3.83,0,0,0-1.13-.17A3.08,3.08,0,0,0,221.07,62.7Z" style="fill:url(#linear-gradient)"/></g></g></svg>